<?xml version="1.0" encoding="UTF-8" standalone="no"?>
<!-- Created with Inkscape (http://www.inkscape.org/) -->
<svg
   xmlns:svg="http://www.w3.org/2000/svg"
   xmlns="http://www.w3.org/2000/svg"
   version="1.0"
   width="990"
   height="1050"
   id="svg2">
  <defs
     id="defs4" />
  <g
     transform="translate(-52.37206,-18.03387)"
     style="display:inline"
     id="layer10">
    <path
       d="M 598.67564,258.46687 L 557.55112,258.81829 L 550.208,260.35362 C 549.15454,254.69317 546.37804,257.18643 546.73714,261.26362 C 538.92823,264.50527 530.02248,269.15611 525.56537,270.09085 C 521.09644,271.02806 482.50956,286.77456 482.50956,286.77456 C 479.54328,283.40218 476.73101,285.88654 476.47784,289.22107 C 472.51339,291.39151 468.78454,293.03188 465.42921,293.83181 C 460.19695,294.59501 457.16686,293.25443 458.42913,298.15668 C 455.18709,300.72164 451.38303,302.38738 447.38288,303.73937 C 445.70545,301.88234 443.79917,300.19935 441.97292,300.72351 C 440.10358,295.82877 435.25319,293.86588 435.71131,302.60068 C 435.30776,305.16273 433.87196,307.72478 435.71131,310.28683 C 433.03031,311.1205 432.1066,313.74027 427.73523,314.92652 C 424.68012,315.75559 422.8086,318.46163 419.75106,319.52296 C 417.71573,319.33979 414.81929,319.43737 413.50946,320.37181 C 412.2646,321.25991 410.98707,321.14276 410.48386,320.07527 C 404.28768,306.9309 401.56927,318.2719 401.55062,321.10438 C 401.63009,323.90188 402.47591,326.55032 398.70628,328.90369 C 396.51121,330.84136 399.16424,331.03246 399.1577,332.49247 C 397.81058,333.5703 396.58319,334.48823 395.19064,335.305 C 382.87551,321.0091 367.65664,312.26945 355.50404,309.64413 C 334.05068,304.99613 320.76107,298.39847 305.91789,283.90766 C 298.11552,275.22581 296.87555,266.01021 292.299,259.35357 C 282.80961,245.55115 274.1266,239.36961 269.43937,237.35329 C 244.15901,226.4487 230.62502,202.60108 230.62502,177.23826 L 232.09276,139.57024 C 231.19832,128.56963 226.70127,121.47964 222.35087,114.53603 C 214.57595,105.72401 208.35374,96.523821 201.72865,87.424341 L 225.94977,71.853801 L 228.59865,62.447811 L 235.06259,62.211581 L 240.55247,64.847141 L 244.40541,68.281191 L 251.15704,61.807771 L 260.75728,67.604641 C 262.5099,67.882861 263.64344,67.614831 262.79788,65.600541 L 254.34666,48.251921 L 264.31419,53.933421 L 273.68368,35.692831 L 276.67394,37.885681 L 276.97296,35.692831 L 294.6155,35.792501 L 297.10738,30.609381 L 326.51161,29.712311 L 337.8746,63.502251 L 356.21487,63.701601 C 358.86464,61.644131 362.21277,59.586651 369.87589,57.529181 C 375.15646,55.820671 381.94452,52.454001 384.05302,51.214871 C 385.10754,50.595151 386.96109,50.189061 387.83239,50.491871 C 390.37583,51.823861 388.02791,53.464951 396.88242,53.534721 C 398.80205,51.473701 400.94614,49.889761 403.88049,47.973701 C 408.95518,47.668691 413.3953,46.787331 418.41229,45.660361 C 421.46216,52.336821 424.66584,59.059711 423.34348,66.791541 L 425.88794,72.871731 L 444.72659,74.466541 L 452.99964,71.974661 L 454.69412,73.469791 L 459.24268,70.221751 C 460.87489,65.659141 462.3423,55.604271 463.06685,47.753541 L 468.9477,42.371081 L 476.02465,53.734071 L 500.64446,50.544451 L 508.40646,45.332771 L 516.773,45.547291 L 518.70374,48.336141 L 518.91827,53.699311 L 529.85912,49.408771 L 546.80672,50.695931 L 547.02125,38.682441 L 555.60231,38.467921 L 576.41139,32.890231 C 577.23713,34.007421 583.43806,57.571221 584.34888,61.636791 L 582.36045,63.782051 L 587.99583,83.518501 L 595.58719,83.559971 L 604.59731,122.94993 L 592.92994,123.8495 C 594.98847,130.69383 596.13881,138.10577 596.9735,145.71499 L 603.72298,145.73121 L 604.00239,157.04343 L 607.19411,163.35896 C 609.61768,163.35501 608.53225,165.72562 608.65709,166.58896 L 605.37248,166.96935 L 613.30997,197.86118 L 585.79287,205.29569 C 591.39248,222.77143 595.21133,240.83862 598.67564,258.46687 z "
       data-district="Białołęka"
       class="color-1 district"
       id="path12416" />
    <path
       d="M 230.50096,176.42918 C 230.82997,204.57886 244.15901,226.4487 269.43937,237.35329 C 274.1266,239.36961 282.80961,245.55115 292.299,259.35357 C 296.87555,266.01021 298.11552,275.22581 305.91789,283.90766 C 320.76107,298.39847 334.05068,304.99613 355.50404,309.64413 C 367.97919,312.33913 382.51927,320.64428 395.15286,335.49206 C 391.74287,337.95285 388.74238,339.79293 384.53936,343.18854 C 379.35037,347.38071 376.94996,337.55317 372.44733,341.55078 C 370.85817,342.78227 370.45441,343.5609 371.6361,345.96602 C 372.15309,350.40514 370.11977,351.85612 368.11531,353.50344 L 329.01632,386.29437 C 322.06741,385.97217 320.70115,389.90157 320.07832,394.54987 C 317.30547,398.58928 314.82163,402.5874 311.04265,406.77054 C 307.95721,409.46601 305.61723,412.5221 304.65795,416.43251 C 302.71414,419.41242 300.46739,422.48192 298.19158,425.16058 C 296.55044,427.09222 294.22664,429.00354 293.41611,431.16982 L 272.12004,422.39027 L 265.84705,414.9971 L 214.99099,398.64251 L 200.20465,391.92144 L 163.23879,376.91107 L 157.18983,376.01492 L 146.8842,363.69297 L 138.81892,363.2449 L 137.25068,366.60543 L 128.60495,366.30961 C 123.75256,363.55967 119.66776,363.72263 115.74218,363.15768 L 117.9122,302.03535 L 115.98329,292.02914 C 115.98329,292.02914 125.44047,256.28776 125.86896,252.96871 C 126.34271,249.29898 118.89162,239.2343 114.97551,234.11655 C 114.50575,233.50265 115.8602,232.00583 117.30942,232.59461 C 125.83399,236.87892 137.49331,237.50079 147.68975,237.41688 C 149.72459,228.54596 149.51041,220.7707 161.98869,206.3709 C 171.00483,205.22556 179.75941,203.46993 187.85659,200.18036 L 188.99788,204.56684 L 193.14487,202.76523 L 196.68315,197.16644 L 203.15695,206.00473 L 223.54074,198.4991 L 224.62643,187.4721 L 230.50096,176.42918 z "
       class="color-2 district"
       data-district="Bielany"
       id="path13305" />
    <path
       d="M 293.14283,431.16982 C 292.23833,436.47958 290.16172,441.34802 286.25828,445.50624 C 281.52675,450.54661 281.48827,453.75034 282.84222,456.89314 C 281.76612,460.68858 278.31532,464.89275 276.00889,468.3372 L 267.24121,476.42118 C 262.90827,475.72613 260.34122,480.3924 257.84702,481.88833 C 257.84702,481.88833 232.51535,502.05215 231.48207,507.0074 C 227.40473,526.56089 224.86497,537.18227 221.63764,552.82775 C 220.10783,560.21688 222.77633,566.7767 222.77633,566.7767 C 222.77633,566.7767 226.91689,576.12087 227.95761,582.20738 C 229.20974,589.53024 228.97629,591.88802 224.76665,596.03959 C 221.82489,598.94078 216.81395,602.08701 212.81198,601.81328 C 206.30348,601.36809 207.52819,604.97197 206.94738,607.27207 L 205.12426,614.60167 L 135.95124,628.55062 C 132.38468,629.8732 128.61577,630.11657 125.46838,633.67472 L 122.12259,633.67472 C 117.80245,629.72415 114.88265,632.06097 111.86843,633.61992 L 102.37669,633.68908 L 102.8426,632.00905 L 108.02654,604.63307 L 111.64325,604.39195 L 113.4516,574.25274 L 107.90598,571.72105 L 107.90598,558.09812 C 113.15818,556.72238 119.15853,552.95251 125.98951,546.52466 L 148.05142,546.28355 C 153.54956,526.11999 159.97922,505.50478 155.40539,490.22461 L 87.170206,477.56614 C 99.594369,459.29343 110.71623,440.69515 121.89058,422.10999 L 128.39669,366.26796 L 137.25068,366.60543 L 138.81892,363.2449 L 146.8842,363.69297 L 157.18983,376.01492 L 163.23879,376.91107 L 200.20465,391.92144 L 214.99099,398.64251 L 265.84705,414.9971 L 272.12004,422.39027 L 293.14283,431.16982 z "
       class="color-4 district"
       data-district="Bemowo"
       id="path14193" />
    <path
       d="M 126.09471,633.55556 L 171.75065,663.05199 C 170.19644,671.74004 179.78209,675.97565 186.50488,677.23669 C 192.39448,680.62545 196.60308,684.42346 202.45174,692.23433 C 208.29091,699.28832 212.19197,694.19893 215.82349,692.66759 L 206.46883,721.0222 L 196.96499,723.13644 L 194.69729,721.28104 L 192.22343,723.34254 L 191.39881,727.46564 L 184.1834,728.29024 L 169.34028,728.90874 L 166.45411,734.47494 L 114.29701,734.68104 C 112.41514,736.16134 111.01629,735.70954 109.76161,734.68104 L 94.093863,735.09334 L 93.887709,704.17017 L 69.478027,714.80244 C 70.150707,714.66794 70.873026,699.66108 69.149162,698.81015 C 67.07621,699.49584 57.357471,666.96395 58.635279,665.20696 C 58.64527,653.69726 64.416328,644.63908 79.250735,639.43764 L 102.37669,634.02169 L 111.86843,633.61992 C 114.88265,632.06097 117.80245,629.72415 122.12259,633.67472 L 126.09471,633.55556 z "
       class="color-3 district"
       data-district="Ursus"
       id="path15083" />
    <path
       d="M 205.12426,614.60167 L 135.95124,628.55062 C 132.38468,629.8732 128.79389,629.93845 125.9237,633.37744 L 171.75065,663.05199 C 170.19644,671.74004 179.78209,675.97565 186.50488,677.23669 C 192.39448,680.62545 196.60308,684.42346 202.45174,692.23433 C 208.29091,699.28832 212.19197,694.19893 215.82349,692.66759 L 206.31698,721.62603 L 197.58345,745.60724 L 210.15888,749.93644 L 210.57119,753.02884 L 214.28197,753.64724 L 215.93121,755.91494 L 216.13736,779.00424 L 221.08507,779.00424 L 230.15587,793.43514 L 227.47586,797.35204 L 241.90668,805.18594 L 241.28822,808.27824 C 248.81918,815.36184 259.43376,822.55414 272.26786,826.76434 C 276.22121,828.06124 279.79039,828.97534 283.73176,832.55214 L 297.07804,835.46464 L 297.31229,847.66224 C 311.83746,861.08244 324.87027,874.58084 347.72604,879.84124 C 355.55628,885.07228 357.71331,886.51124 366.34357,895.73947 L 368.61523,889.12004 C 368.78325,887.83634 372.38016,889.20884 380.32763,889.39124 L 376.01986,825.25154 C 376.58699,820.72304 374.21433,818.96734 374.8348,814.59724 C 374.87949,807.13574 374.19419,795.61584 374.3818,793.73114 C 375.03493,787.17024 375.47956,780.91854 374.44039,776.17434 L 373.83216,713.86044 C 373.26427,704.72075 369.37883,698.57976 363.07845,696.16164 C 338.06782,686.28293 313.05866,676.39546 287.84197,667.75312 C 283.60693,666.17797 279.33316,664.53555 276.66112,661.54847 C 273.98908,658.56139 271.08748,655.89869 267.381,649.13944 C 263.69268,642.41332 260.18243,637.41561 258.30906,634.99996 C 256.40556,632.54545 256.64463,625.88043 258.04542,621.89388 C 250.22957,623.06456 243.08521,626.48702 236.27436,630.74328 C 217.02982,629.54323 225.10549,622.03851 227.98505,615.7329 L 218.57556,615.7329 L 213.64678,612.37237 L 205.5815,612.37237 L 205.66944,612.4985 L 205.12426,614.60167 z "
       class="color-2 district"
       data-district="Włochy"
       id="path15971" />
    <path
       d="M 395.21868,335.43298 L 399.1577,332.49247 C 399.16424,331.03246 396.51121,330.84136 398.70628,328.90369 C 402.47591,326.55032 401.63009,323.90188 401.55062,321.10438 C 401.56927,318.2719 404.28768,306.9309 410.48386,320.07527 C 410.98707,321.14276 412.2646,321.25991 413.50946,320.37181 C 414.81929,319.43737 417.71573,319.33979 419.75106,319.52296 C 422.8086,318.46163 424.68012,315.75559 427.73523,314.92652 C 432.1066,313.74027 433.03031,311.1205 436.01842,310.4945 C 439.33377,317.30612 437.31778,320.84186 443.61195,327.22245 C 446.56626,330.22193 448.82219,334.87803 452.62955,340.52136 L 452.84408,362.40307 C 461.27694,374.9502 459.32767,399.50609 478.80179,398.44354 C 484.05428,403.67586 489.56793,408.75893 498.75277,411.74419 C 525.13954,424.63675 551.33865,433.73024 577.29636,444.59362 L 557.74758,449.28634 L 552.16989,455.72214 L 533.7206,467.09205 L 527.92838,469.45184 C 508.33131,481.1199 503.05697,483.10394 506.04667,504.84873 C 502.78324,511.69146 497.24454,516.87625 490.82771,521.68452 C 484.86795,513.17721 477.56475,505.7279 469.47047,498.51109 C 460.56471,491.58334 453.59967,483.7116 448.44554,474.18657 C 442.12901,462.20636 436.33843,452.47081 431.15299,443.74749 C 422.14021,428.58551 415.97455,408.54778 415.67709,391.05406 C 415.28896,368.19492 406.45946,349.03697 395.21868,335.43298 z "
       class="color-4 district"
       data-district="Praga Północ"
       id="path16861" />
    <path
       d="M 360.69853,442.16527 L 373.19897,441.33408 L 373.85113,442.01737 L 398.50725,443.07483 C 399.69318,442.37138 401.14307,442.72379 402.51145,442.75016 L 404.7841,444.48171 L 411.60206,444.15704 C 414.04264,443.35968 416.09806,442.44678 417.87891,441.4515 C 418.44129,440.42663 419.6422,440.04029 421.12556,439.9364 L 427.35038,436.57736 C 428.66802,439.46588 429.53115,441.01911 431.15299,443.74749 C 436.33843,452.47081 442.12901,462.20636 448.44554,474.18657 C 453.59967,483.7116 460.56471,491.58334 469.47047,498.51109 C 477.56475,505.7279 484.55267,513.45088 490.93455,521.76376 C 495.65315,527.91009 504.67569,542.04448 511.94683,557.92587 C 514.96646,564.52125 525.02271,588.50646 553.48186,596.34064 L 547.33573,605.47697 L 530.94,609.45534 L 531.42222,611.98704 L 520.33099,615.12151 L 519.36654,612.58982 L 513.3387,613.91595 L 515.14705,622.35493 L 515.14705,625.4894 L 509.11921,631.51725 L 489.46844,631.87892 L 485.61062,642.12625 L 480.9089,641.76458 L 472.83159,642.12625 L 464.51317,632.4817 L 461.98147,624.64551 L 456.3153,618.49711 L 454.62751,619.09989 L 453.06027,617.65321 L 447.15298,619.22045 L 446.91187,620.54657 L 421.09497,627.80094 L 416.53154,603.4275 L 416.16987,580.76281 L 400.49748,542.06406 L 394.71075,518.43491 L 363.9527,460.59711 L 361.43011,450.70862 L 360.69853,442.16527 z "
       class="color-2 district"
       data-district="Śródmieście"
       id="path16859" />
    <path
       d="M 656.10727,386.36367 L 650.30049,386.64458 L 636.28774,340.30683 L 627.68325,340.30683 C 626.94807,337.37497 626.28796,334.4431 626.61062,331.51124 C 619.23872,322.57018 614.07694,313.09711 609.25832,305.08448 C 606.43701,300.39308 605.50634,294.9195 603.68184,289.81461 C 602.23428,285.76438 600.42635,282.21093 599.15121,278.30865 L 604.08532,276.59244 L 598.87947,258.62993 L 557.55112,258.81829 L 550.208,260.35362 C 549.15454,254.69317 546.37804,257.18643 546.73714,261.26362 C 538.92823,264.50527 530.02248,269.15611 525.56537,270.09085 C 521.09644,271.02806 482.50956,286.77456 482.50956,286.77456 C 479.54328,283.40218 476.73101,285.88654 476.47784,289.22107 C 472.51339,291.39151 468.78454,293.03188 465.42921,293.83181 C 460.19695,294.59501 457.16686,293.25443 458.42913,298.15668 C 455.18709,300.72164 451.38303,302.38738 447.38288,303.73937 C 445.70545,301.88234 443.79917,300.19935 441.97292,300.72351 C 440.10358,295.82877 435.25319,293.86588 435.71131,302.60068 C 435.30776,305.16273 433.68635,308.23522 436.11123,310.40169 C 439.42658,317.21331 437.31778,320.84186 443.61195,327.22245 C 446.56626,330.22193 448.82219,334.87803 452.62955,340.52136 L 452.84408,362.40307 C 461.27694,374.9502 459.32767,399.50609 478.80179,398.44354 C 484.05428,403.67586 489.56793,408.75893 498.75277,411.74419 C 525.13954,424.63675 551.59314,433.75082 577.55086,444.6142 L 590.35562,440.91981 L 594.00257,441.13433 L 605.80154,438.77454 L 662.89458,441.13166 L 656.85887,408.74082 L 659.00413,408.74082 L 659.00413,400.80333 L 660.93487,399.30165 L 656.85887,387.28816"
       class="color-2 district"
       data-district="Targówek"
       id="path18635" />
    <path
       d="M 427.18597,436.68976 L 421.12556,439.9364 C 419.6422,440.04029 418.44129,440.42663 417.87891,441.4515 C 416.09806,442.44678 414.04264,443.35968 411.60206,444.15704 L 404.7841,444.48171 L 402.51145,442.75016 C 401.14307,442.72379 399.69318,442.37138 398.50725,443.07483 L 373.85113,442.01737 L 373.19897,441.33408 L 360.30504,442.20905 L 343.51231,451.35838 L 343.09782,452.36632 L 336.82097,455.73675 C 336.04298,457.41784 334.95524,457.24039 333.89898,457.25185 C 330.09962,458.3302 328.24967,460.05835 326.10704,461.68893 C 323.63426,462.38014 322.89533,461.77095 321.45351,461.68894 C 320.74081,460.63401 319.61282,459.99438 318.63974,459.19984 C 316.0785,459.48414 313.51725,457.28862 310.95601,456.27786 C 307.66971,456.2382 305.008,456.82315 303.16406,458.22585 C 300.56674,459.92181 299.5035,457.91603 297.42832,457.90118 C 292.65483,457.86515 289.57725,457.37237 286.49794,455.08742 C 284.59964,453.45229 283.67119,454.40345 282.64691,455.10919 C 282.08971,452.69781 281.52675,450.54661 286.25828,445.50624 C 290.16172,441.34802 292.30027,436.29771 293.20477,430.98794 C 294.22664,429.00354 296.55044,427.09222 298.19158,425.16058 C 300.46739,422.48192 302.71414,419.41242 304.65795,416.43251 C 305.61723,412.5221 307.95721,409.46601 311.04265,406.77054 C 314.82163,402.5874 317.30547,398.58928 320.07832,394.54987 C 320.70115,389.90157 322.06741,385.97217 329.01632,386.29437 L 368.11531,353.50344 C 370.11977,351.85612 372.15309,350.40514 371.6361,345.96602 C 370.45441,343.5609 370.85817,342.78227 372.44733,341.55078 C 376.94996,337.55317 379.35037,347.38071 384.53936,343.18854 C 388.80131,339.74531 391.82678,337.60083 395.49465,335.63453 C 406.8876,349.88975 415.29544,368.57693 415.67709,391.05406 C 415.97455,408.54778 422.14021,428.58551 431.15299,443.74749"
       class="color-3 district"
       data-district="Żoliborz"
       id="path19523" />
    <path
       d="M 408.74772,562.70922 L 400.49748,542.06406 L 394.71075,518.43491 L 363.9527,460.59711 L 361.43011,450.70862 L 360.7415,441.96841 L 343.51231,451.35838 L 343.09782,452.36632 L 336.82097,455.73675 C 336.04298,457.41784 334.95524,457.24039 333.89898,457.25185 C 330.09962,458.3302 328.24967,460.05835 326.10704,461.68893 C 323.63426,462.38014 322.89533,461.77095 321.45351,461.68894 C 320.74081,460.63401 319.61282,459.99438 318.63974,459.19984 C 316.0785,459.48414 313.51725,457.28862 310.95601,456.27786 C 307.66971,456.2382 305.008,456.82315 303.16406,458.22585 C 300.56674,459.92181 299.5035,457.91603 297.42832,457.90118 C 292.65483,457.86515 289.57725,457.37237 286.49794,455.08742 C 284.59964,453.45229 283.67119,454.40345 282.59884,454.9926 C 281.96347,455.22489 282.42915,455.93431 282.84222,456.89314 C 281.76612,460.68858 278.31532,464.89275 276.00889,468.3372 L 267.24121,476.42118 C 262.90827,475.72613 260.34122,480.3924 257.84702,481.88833 C 257.84702,481.88833 232.51535,502.05215 231.48207,507.0074 C 227.40473,526.56089 224.86497,537.18227 221.63764,552.82775 C 220.10783,560.21688 222.77633,566.7767 222.77633,566.7767 C 222.77633,566.7767 226.91689,576.12087 227.95761,582.20738 C 229.20974,589.53024 228.97629,591.88802 224.76665,596.03959 C 221.82489,598.94078 216.81395,602.08701 212.81198,601.81328 C 206.30348,601.36809 207.53382,604.9734 206.94738,607.27207 L 205.60906,612.39114 L 213.64678,612.37237 L 218.57556,615.7329 L 227.98505,615.7329 C 225.10549,622.03851 217.02982,629.54323 236.27436,630.74328 C 243.08521,626.48702 250.22957,623.06456 258.22984,621.78186 C 261.44102,620.71192 264.65219,619.74988 267.86337,617.52519 C 273.92622,612.19176 277.66101,611.87242 280.63339,613.71658 L 296.98798,613.71658 C 300.37795,611.96505 303.5657,610.06185 304.60519,606.54745 C 306.54595,604.75428 308.1121,602.58651 308.86186,599.60235 L 316.25504,598.03409 L 321.18382,596.01778 L 330.36927,592.43321 L 332.16156,594.2255 C 337.61309,590.87258 343.06462,586.86822 348.51615,584.59197 C 352.39943,583.41732 356.28271,581.385 360.16599,579.66319 L 376.96865,573.61423 C 379.05965,572.2031 381.15065,571.01656 383.24165,571.37387 L 408.74772,562.70922 z "
       class="color-1 district"
       data-district="Wola"
       id="path20411" />
    <path
       d="M 363.2222,696.20589 L 376.74778,629.46778 L 400.01525,633.68727 L 421.15262,627.76039 L 416.53154,603.4275 L 416.16987,580.76281 L 408.91011,562.74665 L 383.24165,571.37387 C 381.15065,571.01656 379.05965,572.2031 376.96865,573.61423 L 360.16599,579.66319 C 356.28271,581.385 352.39943,583.41732 348.51615,584.59197 C 343.06462,586.86822 337.61309,590.87258 332.16156,594.2255 L 330.36927,592.43321 L 321.18382,596.01778 L 316.25504,598.03409 L 308.86186,599.60235 C 308.1121,602.58651 306.54595,604.75428 304.60519,606.54745 C 303.5657,610.06185 300.37795,611.96505 296.98798,613.71658 L 280.63339,613.71658 C 277.66101,611.87242 273.92622,612.19176 267.86337,617.52519 C 264.65219,619.74988 261.35826,620.71192 257.96265,621.89388 C 256.56187,626.27233 256.40556,632.54545 258.30906,634.99996 C 260.18243,637.41561 263.69268,642.41332 267.381,649.13944 C 271.08748,655.89869 273.98908,658.56139 276.66112,661.54847 C 279.33316,664.53555 283.60693,666.17797 287.84197,667.75312 C 313.05866,676.39546 338.21157,686.32718 363.2222,696.20589 z "
       class="color-4 district"
       data-district="Ochota"
       id="path21299" />
    <path
       d="M 714.81135,519.90041 L 710.39561,516.89518 C 709.30482,515.00285 709.79225,513.92002 710.507,512.57169 L 712.74716,509.24241 L 712.85031,502.05989 L 672.73383,452.9333 L 672.96343,441.55984 L 662.86561,441.13433 L 656.85887,408.74082 L 659.00413,408.74082 L 659.00413,400.80333 L 660.93487,399.30165 L 656.5386,386.27058 L 752.3232,367.4778 C 756.58244,366.64177 756.74965,357.28362 762.44359,355.79282 C 765.62816,354.94077 766.43789,352.22279 767.55459,349.746 L 780.59924,344.45675 L 789.23079,325.67756 L 799.30452,321.42849 L 806.59843,329.79503 L 804.87071,370.02463 L 803.166,376.77635 C 811.18869,385.99086 824.27807,404.74709 827.23935,404.40669 C 830.4644,404.03598 833.13378,409.65121 835.96333,413.88946 L 835.31975,441.13433 C 832.98822,445.31405 831.84892,450.40579 824.46182,451.69662 L 849.62626,455.18186 L 850.94196,477.33472 C 850.1314,480.25032 849.03555,478.88651 847.93459,477.4461 C 847.23311,474.9097 847.61346,473.23877 845.59551,469.64919 C 843.94832,468.88603 842.61116,470.29302 841.25152,471.54272 L 840.58322,477.22333 L 831.67247,480.11932 C 833.49063,484.20341 835.3341,488.28751 835.12538,492.3716 L 817.41527,496.60421 C 813.32282,499.37339 811.8789,501.14937 810.0639,503.0645 L 789.56918,509.30203 L 786.67318,509.74756 C 784.90854,508.39834 782.95547,507.28466 782.32919,504.5125 C 767.9224,509.48686 752.33282,513.57412 739.11206,519.438 L 735.88191,519.54939 L 730.53546,504.73527 C 729.09486,502.54439 728.02154,504.02636 726.85978,504.62388 C 722.50873,509.85849 718.96297,514.26694 714.81135,519.90041 z "
       class="color-4 district"
       data-district="Remberów"
       id="path22189" />
    <path
       d="M 966.29825,682.92387 L 963.43898,682.05724 L 962.90344,678.84398 L 910.688,678.30845 C 909.63895,669.31588 909.0744,660.96512 910.15246,651.26352 L 915.24012,647.78249 C 912.16781,642.96739 908.57523,634.51044 906.13589,634.12615 C 907.22092,630.02032 907.81462,625.91449 907.47475,621.80866 L 903.1904,613.50775 L 899.70937,613.23998 L 886.85634,589.94386 L 888.99852,589.14054 C 887.91534,581.75034 888.77293,571.44899 888.99852,562.09563 C 893.40411,560.25322 896.72227,557.32338 899.70937,554.06248 L 890.33737,542.54831 C 880.75063,536.80674 872.26475,536.01902 864.09577,536.65734 C 856.16948,531.19506 848.57462,525.40134 839.99633,520.59105 C 835.71199,519.03122 831.42765,512.9005 827.1433,508.8091 L 817.1906,496.6818 L 835.12538,492.3716 C 835.3341,488.28751 833.49063,484.20341 831.67247,480.11932 L 840.58322,477.22333 L 841.25152,471.54272 C 842.61116,470.29302 843.94832,468.88603 845.59551,469.64919 C 847.61346,473.23877 847.23311,474.9097 847.93459,477.4461 C 849.03555,478.88651 850.1314,480.25032 850.94196,477.33472 L 849.61904,455.23561 L 989.34984,429.5499 L 994.73825,464.94678 L 999.02878,464.73226 L 997.09804,493.69335 L 960.41399,496.05314 L 963.41737,529.30476 C 970.97911,531.18183 978.95537,530.57178 987.13066,528.76753 L 994.09467,521.15275 L 999.24331,521.15275 L 998.81426,531.45003 C 997.09483,536.5744 993.36989,541.43137 989.37509,546.25236 L 987.01529,581.64925 L 989.27593,581.6817 C 996.81791,597.35843 1003.3872,607.06053 1016.4054,629.48868 C 1012.2441,630.85279 1006.824,630.53844 1001.8176,630.77584 C 994.15879,634.2455 989.29901,638.59907 984.49866,642.97141 L 984.87003,651.58492 C 988.77646,654.33667 990.29255,656.45938 991.30582,658.44977 L 980.36497,663.59841 C 977.76582,666.74034 974.9011,668.6872 971.99843,670.46326 L 971.70097,675.69483 L 966.29825,682.92387 z "
       class="color-3 district"
       data-district="Wesoła"
       id="path22187" />
    <path
       d="M 620.75984,610.3735 L 629.50985,601.52828 C 629.75473,599.42366 630.90019,598.39973 632.62861,598.07536 L 683.53126,544.83364 L 695.78354,544.72225 C 701.60615,544.2102 703.19425,540.21092 704.02598,535.58874 C 707.38929,530.19765 711.03448,525.02622 714.62268,519.91505 L 710.39561,516.89518 C 709.30482,515.00285 709.79225,513.92002 710.507,512.57169 L 712.74716,509.24241 L 712.85031,502.05989 L 672.73383,452.9333 L 672.94836,441.56339 L 605.80154,438.77454 L 594.00257,441.13433 L 590.35562,440.91981 L 577.05497,444.78128 L 557.74758,449.28634 L 552.16989,455.72214 L 533.7206,467.09205 L 527.92838,469.45184 C 508.33131,481.1199 503.05697,483.10394 506.04667,504.84873 C 502.78324,511.69146 497.18937,516.79773 490.92957,521.63217 C 495.91326,527.71494 504.67569,542.31109 511.94683,557.92587 C 515.0089,564.50165 525.42262,588.63976 552.77483,596.15101 C 564.36141,599.33283 568.25998,598.28772 575.87915,597.5409 C 578.41479,597.29236 582.81996,597.18802 586.40817,597.59319 C 598.03364,598.90591 609.55671,602.44396 620.75984,610.3735 z "
       class="color-1 district"
       data-district="Praga Południe"
       id="path23963" />
    <path
       d="M 817.21604,496.76391 C 813.12359,499.53309 811.8789,501.14937 810.0639,503.0645 L 789.56918,509.30203 L 786.67318,509.74756 C 784.90854,508.39834 782.95547,507.28466 782.32919,504.5125 C 767.9224,509.48686 752.33282,513.57412 739.11206,519.438 L 735.88191,519.54939 L 730.53546,504.73527 C 729.09486,502.54439 728.02154,504.02636 726.85978,504.62388 C 718.88488,514.21823 711.11585,524.22432 704.02598,535.58874 C 703.19425,540.21092 701.60615,544.2102 695.78354,544.72225 L 683.53126,544.83364 L 632.62861,598.07536 C 630.90019,598.39973 629.75473,599.42366 629.50985,601.52828 L 620.90945,610.38568 C 637.47707,623.84273 648.99731,643.54355 648.18851,667.46792 C 647.64936,682.22798 649.75206,691.02023 654.63467,704.00954 C 662.04416,723.72114 674.57393,739.09684 690.02912,750.65124 C 705.22731,759.79754 734.29511,772.31284 738.937,815.42514 C 740.45306,831.95794 752.39714,846.58224 763.66684,851.18874 C 775.09058,855.85834 785.96008,864.33904 788.49022,878.82214 C 798.01261,879.66704 807.0747,876.34794 815.82307,871.68924 L 816.68118,864.39534 L 844.99869,856.24334 L 846.50037,859.89024 L 908.92761,850.88014 C 923.87296,839.06414 938.81832,831.80214 953.76367,824.27884 L 986.37171,846.37504 L 984.01192,851.73824 L 1003.1048,868.04224 L 1019.4088,846.16054 L 999.88689,829.85654 L 1005.6791,817.62854 L 1012.544,815.48324 L 1015.7619,802.82614 C 1016.9763,798.55154 1015.2074,793.32764 1022.6267,791.02724 L 1030.1351,790.38364 L 1030.9932,788.02384 L 1037.7752,787.45414 C 1038.5984,783.22304 1035.0975,781.79664 1030.2667,781.23284 L 1029.533,768.91484 L 1035.7543,769.34384 L 1036.0842,773.99664 L 1038.0726,773.86504 L 1038.2871,765.49854 L 1034.6402,765.28404 L 1012.0825,734.35074 C 1018.0523,731.25384 1022.5697,726.37114 1025.1596,720.66244 L 966.08364,683.2429 L 966.92001,683.12833 L 963.43898,682.05724 L 962.90344,678.84398 L 910.688,678.30845 C 909.63895,669.31588 909.0744,660.96512 910.15246,651.26352 L 915.24012,647.78249 C 912.16781,642.96739 908.57523,634.51044 906.13589,634.12615 C 907.22092,630.02032 907.81462,625.91449 907.47475,621.80866 L 903.1904,613.50775 L 899.70937,613.23998 L 886.85634,589.94386 L 888.99852,589.14054 C 887.91534,581.75034 888.77293,571.44899 888.99852,562.09563 C 893.40411,560.25322 896.72227,557.32338 899.70937,554.06248 L 890.33737,542.54831 C 880.75063,536.80674 872.26475,536.01902 864.09577,536.65734 C 856.16948,531.19506 848.57462,525.40134 839.99633,520.59105 C 835.71199,519.03122 831.42765,512.9005 827.1433,508.8091 L 817.21604,496.76391 z "
       class="color-2 district"
       data-district="Wawer"
       id="path24851" />
    <path
       d="M 363.36596,695.53294 L 376.74778,629.46778 L 400.01525,633.68727 L 446.91187,620.54657 L 447.15298,619.22045 L 453.06027,617.65321 L 454.62751,619.09989 L 456.3153,618.49711 L 461.98147,624.64551 L 464.51317,632.4817 L 472.83159,642.12625 L 480.9089,641.76458 L 485.61062,642.12625 L 489.46844,631.87892 L 509.11921,631.51725 L 515.14705,625.4894 L 515.14705,622.35493 L 513.3387,613.91595 L 519.36654,612.58982 L 520.33099,615.12151 L 531.42222,611.98704 L 530.94,609.45534 L 547.33573,605.47697 L 553.4241,596.36588 C 564.83687,599.22477 568.25998,598.28772 575.87915,597.5409 C 578.41479,597.29236 582.81996,597.18802 586.40817,597.59319 C 598.42604,598.95022 610.27739,602.68852 621.83993,611.1945 C 637.47707,624.26899 648.99731,643.54355 648.18851,667.46792 C 647.86429,676.34382 648.49542,683.60185 650.24655,690.22951 C 647.74672,690.61369 646.08656,692.90902 645.30123,696.41379 C 640.76404,697.50992 637.31384,699.69303 636.78119,704.79369 C 636.19218,710.16284 639.17624,715.19325 633.56168,720.5894 L 630.44279,720.99184 C 624.86561,722.50985 625.62446,734.99115 625.00987,740.61071 L 614.54647,742.01925 C 613.16881,738.49706 602.09017,732.42995 595.33003,726.62598 L 578.22609,743.62871 C 572.9547,749.66458 567.88241,755.93938 561.32398,760.43081 C 556.89307,759.94838 554.75572,761.07143 552.97338,762.443 L 564.94592,781.65944 C 565.19148,782.67094 564.79937,783.3636 563.43678,783.57102 C 556.5036,782.53704 548.94971,781.10807 544.824,781.86066 C 540.43071,783.94954 536.12296,784.0317 531.73561,784.56827 L 516.97726,770.39058 C 514.65158,769.32778 513.39949,767.36549 512.24013,765.46961 C 510.39357,764.72966 508.55997,763.94435 506.54811,763.78296 C 506.82498,769.74433 503.88474,774.73745 499.6253,779.71145 L 494.24749,785.91268 C 488.83182,789.3985 482.57272,792.51519 475.98319,794.73109 C 474.56064,794.59793 470.94677,791.53256 469.55116,791.32941 C 469.12394,791.26722 465.66197,791.22148 465.66197,791.22148 L 465.62996,792.953 L 463.41092,792.90449 C 462.09284,793.6879 462.33403,794.86114 462.31971,795.97049 C 459.87325,795.50135 457.42679,795.38965 454.98033,795.43083 C 453.88002,795.01056 453.08887,794.74487 451.19543,793.92803 C 451.20712,794.75585 451.81044,795.39668 451.88232,796.6501 C 450.50699,799.51698 449.05439,802.03024 448.60409,804.42946 L 444.7149,802.15101 L 442.34039,802.14639 L 442.35227,799.27612 L 433.96195,799.69233 C 433.02804,798.21238 433.28045,796.13928 432.96218,794.35151 C 430.65145,793.63521 428.21109,792.4004 425.73073,791.00561 L 424.88377,792.81571 C 424.46155,793.43644 423.86464,793.81002 422.23068,793.0012 C 420.91717,792.76593 408.56519,787.72582 399.45108,784.63398 L 397.76806,785.41691 C 391.33606,781.78138 385.02736,779.99519 378.67233,777.5141 C 377.83634,778.27169 377.62233,779.75492 377.26921,781.07586 C 376.39895,780.37128 375.48963,779.52519 374.93035,779.50903 L 374.45008,776.16447 L 373.83216,713.86044 C 373.26427,704.72075 369.37883,698.57976 363.07845,696.16164"
       class="color-3 district"
       data-district="Mokotów"
       id="path25739" />
    <path
       d="M 639.34078,1016.607 C 638.62989,1016.9056 638.1834,1017.1189 636.8818,1015.8786 C 634.9947,1013.8383 633.83057,1011.075 632.52014,1008.458 C 630.56732,1007.6309 632.78643,1006.2917 631.04833,1005.3678 C 629.31023,1004.444 630.4019,1003.4702 630.26868,1002.4976 C 629.70023,999.94592 628.70257,997.70086 627.4245,995.6561 L 607.6044,992.83903 C 608.53856,991.218 616.25187,992.10231 621.38792,992.03415 C 622.80564,992.88535 624.19617,993.3015 625.51292,992.5372 C 624.77555,988.62037 620.79713,985.20819 619.27512,981.36954 C 617.85559,981.73837 616.24439,982.04315 614.31241,981.36954 C 612.38042,980.69593 610.8121,981.25677 609.06194,981.36954 C 610.13248,980.56418 611.19455,979.75728 611.17474,978.75368 C 610.76629,976.91356 608.78226,975.26543 607.50379,973.52198 L 614.44847,979.29739 C 616.32651,978.56641 617.90012,978.39295 619.77817,978.55247 C 620.08804,978.67642 618.09272,972.57458 617.26293,972.71711 C 615.21932,973.06813 612.05059,971.05331 612.73549,970.37598 C 614.15687,970.47517 615.76251,971.13315 616.73798,970.37859 C 615.9864,967.11819 612.93524,963.65446 611.93062,960.34212 C 610.73934,960.45695 608.99052,961.82625 608.91233,959.43664 C 609.6987,958.79196 610.18205,958.09678 609.75787,957.25034 C 608.52861,956.74751 608.0109,955.53314 607.24263,954.56933 C 605.2882,955.81234 603.62154,953.49398 599.93357,952.95957 C 601.81366,952.73737 603.3727,952.12799 604.45267,951.6162 C 603.55951,951.10616 602.32056,950.8476 602.47331,949.5769 C 603.08454,948.41047 603.68467,947.57261 605.08916,946.65922 C 602.66305,943.74084 601.00415,942.23048 599.45502,939.61654 C 598.5472,940.331 597.64724,941.12405 596.83917,942.83605 L 595.59381,939.96998 C 596.33576,939.78539 597.19098,939.74938 597.74466,938.81167 C 598.14929,936.36459 597.71632,935.50862 596.63399,935.22935 C 594.85345,934.76992 594.65248,931.81465 596.62701,930.37662 C 595.65865,929.19679 595.65593,927.59835 595.65647,926.41852 C 594.85244,925.66303 594.64672,924.66821 594.32393,923.72022 C 592.84059,923.43358 591.89792,923.82276 591.63197,925.05786 C 589.21734,922.85925 586.84077,924.17869 584.38808,925.05786 C 585.31932,923.90062 586.27557,922.82257 592.31435,922.16729 C 593.0396,921.88245 592.20986,918.60728 590.60138,914.16231 C 589.09126,913.51481 588.52537,915.96979 587.67015,917.47409 C 588.0983,916.21521 588.73045,914.42793 587.58309,913.75987 C 586.59455,914.13535 585.25731,914.96484 584.4789,913.95357 C 583.68197,912.91823 582.7523,913.47755 581.85095,913.68897 C 580.95239,911.15135 579.17005,908.76102 577.72335,906.31476 C 576.90382,907.16925 575.31561,906.87072 573.92729,906.87202 L 573.70991,899.43786 C 570.33988,892.91242 567.17732,886.53059 563.62445,880.22976 L 568.78525,877.14058 L 563.73861,869.0892 L 562.6809,869.89408 C 562.11256,868.06406 561.43855,867.50202 560.77193,866.85129 L 561.56586,866.03546 C 560.6249,865.46821 559.76821,863.88773 559.21982,862.63348 C 558.52688,861.03073 557.33467,860.9672 556.90414,859.70092 C 555.98683,857.64916 555.39777,857.05769 553.97948,855.5069 L 552.57094,856.41239 C 552.85483,854.88351 552.89968,853.29488 552.37493,851.56384 C 551.12295,850.64076 550.26897,851.71086 549.78671,851.27035 C 548.31024,850.35871 548.62987,849.6815 548.09772,848.581 L 547.64107,843.53436 C 546.35764,839.437 545.07514,838.49723 544.16873,834.5556 C 542.85187,830.97262 542.08118,829.9656 540.97896,827.5496 C 538.74622,822.65555 536.78278,818.55847 535.63881,819.60543 C 535.45936,816.52416 534.09219,815.19424 532.85146,813.49013 C 530.62562,810.08565 529.08123,808.55514 527.21709,806.14533 L 521.58318,798.80112 C 520.79512,798.8681 520.60222,798.78776 520.65319,801.56372 C 519.93711,801.63576 519.33341,800.35311 518.59173,798.90981 C 518.73609,797.91655 519.48237,797.44667 520.37586,797.05271 C 517.86312,794.67162 516.99956,792.29052 515.74782,789.90943 C 516.31853,788.35714 526.07627,786.36737 531.64414,784.57712 C 536.03743,783.98894 540.43071,783.94954 544.824,781.86066 C 548.94971,781.10807 556.5036,782.53704 563.43678,783.57102 C 564.79937,783.3636 565.19148,782.67094 564.94592,781.65944 L 552.97338,762.443 C 554.75572,761.07143 556.89307,759.94838 561.32398,760.43081 C 567.88241,755.93938 572.9547,749.66458 578.22609,743.62871 L 595.33003,726.62598 C 602.09017,732.42995 613.16881,738.49706 614.54647,742.01925 L 625.00987,740.61071 C 625.62446,734.99115 624.86561,722.50985 630.44279,720.99184 L 633.56168,720.5894 C 639.17624,715.19325 636.19218,710.16284 636.78119,704.79369 C 637.31384,699.69303 640.76404,697.50992 645.30123,696.41379 C 646.08656,692.90902 647.56665,690.79376 650.06123,690.27254 C 651.22969,694.45832 652.71799,698.91055 654.63467,704.00954 C 662.04416,723.72114 674.57393,739.09684 690.02912,750.65124 C 705.22731,759.79754 734.29511,772.31284 738.937,815.42514 C 740.45306,831.95794 752.39714,846.58224 763.66684,851.18874 C 775.09058,855.85834 785.92551,864.2441 788.45565,878.7272 C 781.22086,880.715 774.59901,882.52374 766.92696,882.77664 C 765.99048,885.56644 764.7704,886.08734 763.65799,887.46964 C 765.13268,892.71544 764.78027,894.30694 764.55122,896.14524 C 761.46544,897.39364 759.77405,896.73044 757.05873,896.86744 L 749.54821,904.66034 L 744.03941,915.41774 C 741.09779,919.13704 736.76714,921.41134 732.85861,923.39014 L 733.23033,927.89514 C 725.69623,934.62964 720.65701,943.99754 720.14421,958.14344 C 719.74998,960.19784 716.38245,962.29164 714.13747,958.35794 C 714.13747,958.35794 714.27501,955.76394 711.98156,952.63904 C 709.88965,949.78864 708.11477,945.12524 708.11477,945.12524 L 701.7506,950.28594 C 697.49591,967.45014 690.71539,979.40804 676.93512,976.93784 L 659.78363,992.81814 L 662.37391,998.03474 L 639.34078,1016.607 z "
       class="color-4 district"
       data-district="Wilanów"
       id="path26627" />
    <path
       d="M 639.60473,1016.9906 L 641.98675,1017.5264 L 647.28909,1026.3628 L 642.78284,1026.828 C 639.0201,1028.927 632.3373,1031.3252 625.71366,1030.8785 C 616.51907,1030.2584 609.59069,1035.9719 608.31853,1037.0944 C 605.73432,1039.3747 605.06843,1043.412 601.75031,1048.7566 C 599.94711,1051.6611 596.43926,1054.8344 594.13597,1055.531 C 589.61112,1056.8993 586.08933,1053.1615 586.08933,1053.1615 L 537.32501,1018.7652 L 527.43136,1016.1123 L 518.87214,1009.8976 L 518.27144,1007.9751 L 507.81489,999.36864 L 503.53245,1002.551 L 502.8716,1005.8109 L 487.51715,1022.4441 L 488.75393,1024.6466 L 448.99855,1025.4941 L 448.64312,1034.2958 L 391.69336,1035.1691 C 385.42579,1036.626 380.23172,1035.3671 374.4395,1033.881 L 375.34265,1029.1517 C 375.34265,1029.1517 368.25263,1027.6398 368.74965,1026.5311 C 369.39323,1023.9568 373.87515,1008.708 373.87515,1008.708 L 368.5525,1006.5181 C 367.23695,1005.5826 367.22458,1003.4228 368.60325,1000.9866 C 370.96988,996.73364 372.89747,993.39784 375.39997,988.17714 L 370.29763,972.32534 C 370.72486,969.28374 372.21838,967.94224 374.04448,965.74504 C 376.02487,963.81074 377.42144,961.88674 379.03629,958.99624 L 365.00032,958.12024 C 365.46356,956.86544 359.72139,944.25374 357.44771,942.79084 C 358.09129,940.00204 358.02332,924.89184 358.02332,924.89184 L 370.25134,900.86484 C 368.87776,898.90959 367.553,897.17879 366.3157,895.54349 L 368.61523,889.12004 C 368.78325,887.83634 372.38016,889.20884 380.32763,889.39124 L 376.01986,825.25154 C 376.58699,820.72304 374.21433,818.96734 374.8348,814.59724 C 374.87949,807.13574 374.19419,795.61584 374.3818,793.73114 C 374.90311,788.4944 375.29159,783.45465 374.91455,779.36512 C 375.48963,779.52519 376.39895,780.37128 377.26921,781.07586 C 377.62233,779.75492 377.83634,778.27169 378.67233,777.5141 C 385.02736,779.99519 391.33606,781.78138 397.76806,785.41691 L 399.45108,784.63398 C 408.56519,787.72582 420.91717,792.76593 422.23068,793.0012 C 423.86464,793.81002 424.46155,793.43644 424.88377,792.81571 L 425.73073,791.00561 C 428.21109,792.4004 430.65145,793.63521 432.96218,794.35151 C 433.28045,796.13928 433.02804,798.21238 433.96195,799.69233 L 442.35227,799.27612 L 442.34039,802.14639 L 444.7149,802.15101 L 448.60409,804.42946 C 449.05439,802.03024 450.50699,799.51698 451.88232,796.6501 C 451.81044,795.39668 451.20712,794.75585 451.19543,793.92803 C 453.08887,794.74487 453.88002,795.01056 454.98033,795.43083 C 457.42679,795.38965 459.87325,795.50135 462.31971,795.97049 C 462.33403,794.86114 462.09284,793.6879 463.41092,792.90449 L 465.62996,792.953 L 465.66197,791.22148 C 465.66197,791.22148 469.12394,791.26722 469.55116,791.32941 C 470.94677,791.53256 474.56064,794.59793 475.98319,794.73109 C 482.57272,792.51519 488.83182,789.3985 494.24749,785.91268 L 499.6253,779.71145 C 503.88474,774.73745 506.82498,769.74433 506.54811,763.78296 C 508.55997,763.94435 510.39357,764.72966 512.24013,765.46961 C 513.39949,767.36549 514.65158,769.32778 516.97726,770.39058 L 531.65009,784.52551 C 526.07627,786.36737 516.31853,788.35714 515.74782,789.90943 C 516.99956,792.29052 517.86312,794.67162 520.37586,797.05271 C 519.48237,797.44667 518.73609,797.91655 518.59173,798.90981 C 519.33341,800.35311 519.93711,801.63576 520.65319,801.56372 C 520.60222,798.78776 520.79512,798.8681 521.58318,798.80112 L 527.21709,806.14533 C 529.08123,808.55514 530.62562,810.08565 532.85146,813.49013 C 534.09219,815.19424 535.45936,816.52416 535.63881,819.60543 C 536.78278,818.55847 538.74622,822.65555 540.97896,827.5496 C 542.08118,829.9656 542.85187,830.97262 544.16873,834.5556 C 545.07514,838.49723 546.35764,839.437 547.64107,843.53436 L 548.09772,848.581 C 548.62987,849.6815 548.31024,850.35871 549.78671,851.27035 C 550.26897,851.71086 551.12295,850.64076 552.37493,851.56384 C 552.89968,853.29488 552.85483,854.88351 552.57094,856.41239 L 553.97948,855.5069 C 555.39777,857.05769 555.98683,857.64916 556.90414,859.70092 C 557.33467,860.9672 558.52688,861.03073 559.21982,862.63348 C 559.76821,863.88773 560.6249,865.46821 561.56586,866.03546 L 560.77193,866.85129 C 561.43855,867.50202 562.11256,868.06406 562.6809,869.89408 L 563.73861,869.0892 L 568.78525,877.14058 L 563.62445,880.22976 C 567.17732,886.53059 570.33988,892.91242 573.70991,899.43786 L 573.92729,906.87202 C 575.31561,906.87072 576.90382,907.16925 577.72335,906.31476 C 579.17005,908.76102 580.95239,911.15135 581.85095,913.68897 C 582.7523,913.47755 583.68197,912.91823 584.4789,913.95357 C 585.25731,914.96484 586.59455,914.13535 587.58309,913.75987 C 588.73045,914.42793 588.0983,916.21521 587.67015,917.47409 C 588.52537,915.96979 589.09126,913.51481 590.60138,914.16231 C 592.20986,918.60728 593.0396,921.88245 592.31435,922.16729 C 586.27557,922.82257 585.31932,923.90062 584.38808,925.05786 C 586.84077,924.17869 589.21734,922.85925 591.63197,925.05786 C 591.89792,923.82276 592.84059,923.43358 594.32393,923.72022 C 594.64672,924.66821 594.85244,925.66303 595.65647,926.41852 C 595.65593,927.59835 595.65865,929.19679 596.62701,930.37662 C 594.65248,931.81465 594.85345,934.76992 596.63399,935.22935 C 597.71632,935.50862 598.14929,936.36459 597.74466,938.81167 C 597.19098,939.74938 596.33576,939.78539 595.59381,939.96998 L 596.83917,942.83605 C 597.64724,941.12405 598.5472,940.331 599.45502,939.61654 C 601.00415,942.23048 602.66305,943.74084 605.08916,946.65922 C 603.68467,947.57261 603.08454,948.41047 602.47331,949.5769 C 602.32056,950.8476 603.55951,951.10616 604.45267,951.6162 C 603.3727,952.12799 601.81366,952.73737 599.93357,952.95957 C 603.62154,953.49398 605.2882,955.81234 607.24263,954.56933 C 608.0109,955.53314 608.52861,956.74751 609.75787,957.25034 C 610.18205,958.09678 609.6987,958.79196 608.91233,959.43664 C 608.99052,961.82625 610.73934,960.45695 611.93062,960.34212 C 612.93524,963.65446 615.9864,967.11819 616.73798,970.37859 C 615.76251,971.13315 614.15687,970.47517 612.73549,970.37598 C 612.05059,971.05331 615.21932,973.06813 617.26293,972.71711 C 618.09272,972.57458 620.08804,978.67642 619.77817,978.55247 C 617.90012,978.39295 616.32651,978.56641 614.44847,979.29739 L 607.50379,973.52198 C 608.78226,975.26543 610.76629,976.91356 611.17474,978.75368 C 611.19455,979.75728 610.13248,980.56418 609.06194,981.36954 C 610.8121,981.25677 612.38042,980.69593 614.31241,981.36954 C 616.24439,982.04315 617.85559,981.73837 619.27512,981.36954 C 620.79713,985.20819 624.77555,988.62037 625.51292,992.5372 C 624.19617,993.3015 622.80564,992.88535 621.38792,992.03415 C 616.25187,992.10231 608.53856,991.218 607.6044,992.83903 L 627.4245,995.6561 C 628.70257,997.70086 629.70023,999.94592 630.26868,1002.4976 C 630.4019,1003.4702 629.31023,1004.444 631.04833,1005.3678 C 632.78643,1006.2917 630.56732,1007.6309 632.52014,1008.458 C 633.83057,1011.075 634.9947,1013.8383 636.8818,1015.8786 C 638.1834,1017.1189 638.76087,1016.7573 639.60473,1016.9906 z "
       class="color-1 district"
       data-district="Ursynów"
       id="path10101" />
  </g>
  <g
     transform="translate(30.7708,-317.1503)"
     style="opacity:1;display:inline"
     id="layer2">
    <path
       d="M 140.39788,497.6155 L 120.01409,505.12113 L 113.54029,496.28284 L 110.00201,501.88163 L 105.85502,503.68324 L 104.71373,499.29676 C 96.616554,502.58633 87.861971,504.34196 78.845833,505.4873 C 66.36755,519.8871 66.581735,527.66236 64.546889,536.53328 C 54.350454,536.61719 42.691131,535.99532 34.16656,531.71101 C 32.717347,531.12223 31.362891,532.61905 31.83265,533.23295 C 35.748762,538.3507 43.199851,548.41538 42.726098,552.08511 C 42.297617,555.40416 32.840435,591.14554 32.840435,591.14554 L 34.769345,601.15175 L 32.599321,662.27408 C 36.524902,662.83903 40.609698,662.67607 45.137235,665.04689 L 38.747721,721.22639 C 27.573368,739.81155 16.451509,758.40983 4.0273463,776.68254 L 72.262528,789.34101 C 76.836368,804.62118 70.406703,825.23639 64.908559,845.39995 L 42.846654,845.64106 C 36.015677,852.06891 30.01532,855.83878 24.763126,857.21452 L 24.763126,870.83745 L 30.308741,873.36914 L 28.500388,903.50835 L 24.883683,903.74947 L 19.699738,931.12545 L 18.909967,933.54342 L -3.8921247,938.55404 C -18.726532,943.75548 -24.49759,952.81366 -24.507581,964.32336 C -25.785389,966.08035 -16.06665,998.61224 -13.993698,997.92655 C -12.269834,998.77748 -12.992153,1013.7843 -13.664833,1013.9188 L 10.744849,1003.2866 L 10.951004,1034.2097 L 26.61875,1033.7974 C 27.873435,1034.8259 29.272285,1035.2777 31.15415,1033.7974 L 83.311254,1033.5913 L 86.197418,1028.0251 L 101.04055,1027.4066 L 108.25595,1026.582 L 109.08057,1022.4589 L 111.55443,1020.3974 L 113.82213,1022.2528 L 123.09908,1020.1912 L 114.44059,1044.7236 L 127.01602,1049.0528 L 127.42833,1052.1452 L 131.13911,1052.7636 L 132.78835,1055.0313 L 132.9945,1078.1206 L 137.94221,1078.1206 L 147.01301,1092.5515 L 144.333,1096.4684 L 158.76382,1104.3023 L 158.14536,1107.3946 C 165.67632,1114.4782 176.2909,1121.6705 189.125,1125.8807 C 193.07835,1127.1776 196.64753,1128.0917 200.5889,1131.6685 L 213.93518,1134.581 L 214.16943,1146.7786 C 228.6946,1160.1988 241.72741,1173.6972 264.58318,1178.9576 C 272.67169,1184.0595 280.38154,1190.4056 287.10848,1199.9812 L 274.88046,1224.0082 C 274.88046,1224.0082 274.94843,1239.1184 274.30485,1241.9072 C 276.57853,1243.3701 282.3207,1255.9818 281.85746,1257.2366 L 295.89343,1258.1126 C 294.27858,1261.0031 292.88201,1262.9271 290.90162,1264.8614 C 289.07552,1267.0586 287.582,1268.4001 287.15477,1271.4417 L 292.25711,1287.2935 C 289.75461,1292.5142 287.82702,1295.85 285.46039,1300.103 C 284.08172,1302.5392 284.09409,1304.699 285.40964,1305.6345 L 290.73229,1307.8244 C 290.73229,1307.8244 286.25037,1323.0732 285.60679,1325.6475 C 285.10977,1326.7562 292.19979,1328.2681 292.19979,1328.2681 L 291.29664,1332.9974 C 297.08886,1334.4835 302.28293,1335.7424 308.5505,1334.2855 L 365.50026,1333.4122 L 365.85569,1324.6105 L 405.61107,1323.763 L 404.37429,1321.5605 L 419.72874,1304.9273 L 420.38959,1301.6674 L 424.67203,1298.485 L 435.12858,1307.0915 L 435.72928,1309.014 L 444.2885,1315.2287 L 454.18215,1317.8816 L 502.94647,1352.2779 C 502.94647,1352.2779 506.46826,1356.0157 510.99311,1354.6474 C 513.2964,1353.9508 516.80425,1350.7775 518.60745,1347.873 C 521.92557,1342.5284 522.59146,1338.4911 525.17567,1336.2108 C 526.44783,1335.0883 533.37621,1329.3748 542.5708,1329.9949 C 549.19444,1330.4416 555.87724,1328.0434 559.63998,1325.9444 L 564.14623,1325.4792 L 558.84389,1316.6428 L 556.31276,1315.611 L 579.23105,1297.1511 L 576.64077,1291.9345 L 593.79226,1276.0542 C 607.57253,1278.5244 614.35305,1266.5665 618.60774,1249.4023 L 624.97191,1244.2416 C 624.97191,1244.2416 626.74679,1248.905 628.8387,1251.7554 C 631.13215,1254.8803 630.99461,1257.4743 630.99461,1257.4743 C 633.23959,1261.408 636.60712,1259.3142 637.00135,1257.2598 C 637.51415,1243.1139 642.55337,1233.746 650.08747,1227.0115 L 649.71575,1222.5065 C 653.62428,1220.5277 657.95493,1218.2534 660.89655,1214.5341 L 666.40535,1203.7767 L 673.91587,1195.9838 C 676.63119,1195.8468 678.32258,1196.51 681.40836,1195.2616 C 681.63741,1193.4233 681.98982,1191.8318 680.51513,1186.586 C 681.62754,1185.2037 682.84762,1184.6828 683.7841,1181.893 C 691.45615,1181.6401 698.03053,1179.9263 705.11985,1177.9252 C 714.78771,1178.7834 723.93184,1175.4643 732.68021,1170.8056 L 733.53832,1163.5117 L 761.85583,1155.3597 L 763.35751,1159.0066 L 825.78475,1149.9965 C 840.7301,1138.1805 855.67546,1130.9185 870.62081,1123.3952 L 903.22885,1145.4914 L 900.86906,1150.8546 L 919.96193,1167.1586 L 936.26595,1145.2769 L 916.74403,1128.9729 L 922.53625,1116.7449 L 929.4011,1114.5996 L 932.619,1101.9425 C 933.83348,1097.6679 932.06452,1092.444 939.48385,1090.1436 L 946.99228,1089.5 L 947.85038,1087.1402 L 954.6323,1086.5705 C 955.45551,1082.3394 951.95463,1080.913 947.12387,1080.3492 L 946.39016,1068.0312 L 952.61144,1068.4602 L 952.94133,1073.113 L 954.92976,1072.9814 L 955.14429,1064.6149 L 951.49734,1064.4004 L 928.9396,1033.4671 C 934.90947,1030.3702 939.4268,1025.4875 942.0167,1019.7788 L 882.94078,982.3593 L 888.55811,974.81123 L 888.85557,969.57966 C 891.75824,967.8036 894.62296,965.85674 897.22211,962.71481 L 908.16296,957.56617 C 907.14969,955.57578 905.6336,953.45307 901.72717,950.70132 L 901.3558,942.08781 C 906.15615,937.71547 911.01593,933.3619 918.67477,929.89224 C 923.68112,929.65484 929.10127,929.96919 933.26258,928.60508 C 920.24436,906.17693 913.67505,896.47483 906.13307,880.7981 L 903.87243,880.76565 L 906.23223,845.36876 C 910.22703,840.54777 913.95197,835.6908 915.6714,830.56643 L 916.10045,820.26915 L 910.95181,820.26915 L 903.9878,827.88393 C 895.81251,829.68818 887.83625,830.29823 880.27451,828.42116 L 877.27113,795.16954 L 913.95518,792.80975 L 915.88592,763.84866 L 911.59539,764.06318 L 906.20698,728.6663 L 766.60786,754.32655 L 741.31896,750.81302 C 748.70606,749.52219 749.84536,744.43045 752.17689,740.25073 L 752.82047,713.00586 C 749.99092,708.76761 747.32154,703.15238 744.09649,703.52309 C 741.13521,703.86349 728.04583,685.10726 720.02314,675.89275 L 721.72785,669.14103 L 723.45557,628.91143 L 716.16166,620.54489 L 706.08793,624.79396 L 697.45638,643.57315 L 684.41173,648.8624 C 683.29503,651.33919 682.4853,654.05717 679.30073,654.90922 C 673.60679,656.40002 673.43958,665.75817 669.18034,666.5942 L 572.96441,685.48007 L 567.15763,685.76098 L 553.14488,639.42323 L 544.54039,639.42323 C 543.80521,636.49137 543.1451,633.5595 543.46776,630.62764 C 536.09586,621.68658 530.93408,612.21351 526.11546,604.20088 C 523.29415,599.50948 522.36348,594.0359 520.53898,588.93101 C 519.09142,584.88078 517.28349,581.32733 516.00835,577.42505 L 520.94246,575.70884 L 515.66448,557.40217 C 512.20017,539.77392 508.24962,521.88783 502.65001,504.41209 L 530.16711,496.97758 L 522.22962,466.08575 L 525.51423,465.70536 C 525.38939,464.84202 526.47482,462.47141 524.05125,462.47536 L 520.85953,456.15983 L 520.58012,444.84761 L 513.83064,444.83139 C 512.99595,437.22217 511.84561,429.81023 509.78708,422.9659 L 521.45445,422.06633 L 512.44433,382.67637 L 504.85297,382.6349 L 499.21759,362.89845 L 501.20602,360.75319 C 500.2952,356.68762 494.09427,333.12382 493.26853,332.00663 L 472.45945,337.58432 L 463.87839,337.79884 L 463.66386,349.81233 L 446.71626,348.52517 L 435.77541,352.81571 L 435.56088,347.45254 L 433.63014,344.66369 L 425.2636,344.44917 L 417.5016,349.66085 L 392.88179,352.85047 L 385.80484,341.48748 L 379.92399,346.86994 C 379.19944,354.72067 377.73203,364.77554 376.09982,369.33815 L 371.55126,372.58619 L 369.85678,371.09106 L 361.58373,373.58294 L 342.74508,371.98813 L 340.20062,365.90794 C 341.52298,358.17611 338.3193,351.45322 335.26943,344.77676 C 330.25244,345.90373 325.81232,346.78509 320.73763,347.0901 C 317.80328,349.00616 315.65919,350.5901 313.73956,352.65112 C 304.88505,352.58135 307.23297,350.94026 304.68953,349.60827 C 303.81823,349.30546 301.96468,349.71155 300.91016,350.33127 C 298.80166,351.5704 292.0136,354.93707 286.73303,356.64558 C 279.06991,358.70305 275.72178,360.76053 273.07201,362.818 L 254.73174,362.61865 L 243.36875,328.82871 L 213.96452,329.72578 L 211.47264,334.9089 L 193.8301,334.80923 L 193.53108,337.00208 L 190.54082,334.80923 L 181.17133,353.04982 L 171.2038,347.36832 L 179.65502,364.71694 C 180.50058,366.73123 179.36704,366.99926 177.61442,366.72104 L 168.01418,360.92417 L 161.26255,367.39759 L 157.40961,363.96354 L 151.91973,361.32798 L 145.45579,361.56421 L 142.80691,370.9702 L 118.58579,386.54074 C 125.21088,395.64022 131.43309,404.84041 139.20801,413.65243 C 143.55841,420.59604 148.05546,427.68603 148.9499,438.68664 L 147.11797,475.76587 L 141.48357,486.5885 L 140.39788,497.6155 z "
       style="opacity:1;fill:none;fill-rule:evenodd;stroke:black;stroke-width:4;stroke-linecap:butt;stroke-linejoin:round;stroke-miterlimit:4;stroke-dasharray:none;stroke-opacity:1"
       id="path2067" />
  </g>
  <g
     transform="translate(30.7708,-317.1503)"
     style="opacity:1;display:inline"
     id="layer7">
    <path
       d="M 147.59823,475.32528 C 147.35247,503.47496 161.01615,525.5651 186.29651,536.46969 C 190.98374,538.48601 199.66675,544.66755 209.15614,558.46997 C 213.73269,565.12661 214.97266,574.34221 222.77503,583.02406 C 237.61821,597.51487 250.90782,604.11253 272.36118,608.76053 C 296.16222,613.90225 331.72477,642.49719 332.53423,690.17046 C 332.83169,707.66418 338.99735,727.70191 348.01013,742.86389 C 353.19557,751.58721 358.98615,761.32276 365.30268,773.30297 C 370.45681,782.828 377.42185,790.69974 386.32761,797.62749 C 394.42189,804.8443 401.82979,812.37213 407.79169,821.01346 C 412.93027,826.83134 421.53283,841.42749 428.80397,857.04227 C 431.86604,863.61805 442.27976,887.75616 469.63197,895.26741 C 481.21855,898.44923 485.11712,897.40412 492.73629,896.6573 C 495.27193,896.40876 499.6771,896.30442 503.26531,896.70959 C 515.28318,898.06662 527.13453,901.80492 538.69707,910.3109 C 554.33421,923.38539 565.85445,942.65995 565.04565,966.58432 C 564.5065,981.34438 566.6092,990.13663 571.49181,1003.1259 C 578.9013,1022.8375 591.43107,1038.2132 606.88626,1049.7676 C 622.08445,1058.9139 651.15225,1071.4292 655.79414,1114.5415 C 657.3102,1131.0743 669.25428,1145.6986 680.52398,1150.3051 C 691.94772,1154.9747 702.73518,1163.4554 705.4108,1177.9518"
       style="opacity:1;fill:none;fill-rule:evenodd;stroke:white;stroke-width:3;stroke-linecap:butt;stroke-linejoin:round;stroke-miterlimit:4;stroke-dasharray:none;stroke-opacity:1;display:inline"
       id="path2061" />
    <path
       d="M 337.96984,926.89638 L 333.38868,902.5439 L 333.02701,879.87921 L 317.35462,841.18046 L 311.56789,817.55131 L 280.80984,759.71351 L 278.28725,749.82502 L 277.6042,741.58285"
       style="opacity:1;fill:none;fill-rule:evenodd;stroke:white;stroke-width:3;stroke-linecap:butt;stroke-linejoin:round;stroke-miterlimit:4;stroke-dasharray:none;stroke-opacity:1;display:inline"
       id="path2063" />
    <path
       d="M 280.2231,994.64934 L 293.60492,928.58418 L 316.87239,932.80367 L 363.76901,919.66297 L 364.01012,918.33685 L 369.91741,916.76961 L 371.48465,918.21629 L 373.17244,917.61351 L 378.83861,923.76191 L 381.37031,931.5981 L 389.68873,941.24265 L 397.76604,940.88098 L 402.46776,941.24265 L 406.32558,930.99532 L 425.97635,930.63365 L 432.00419,924.6058 L 432.00419,921.47133 L 430.19584,913.03235 L 436.22368,911.70622 L 437.18813,914.23791 L 448.27936,911.10344 L 447.79714,908.57174 L 464.19287,904.59337 L 469.9796,895.91327"
       style="opacity:1;fill:none;fill-rule:evenodd;stroke:white;stroke-width:3;stroke-linecap:butt;stroke-linejoin:round;stroke-miterlimit:4;stroke-dasharray:none;stroke-opacity:1;display:inline"
       id="path2065" />
    <path
       d="M 573.71601,686.40456 L 577.79201,698.41805 L 575.86127,699.91973 L 575.86127,707.85722 L 573.71601,707.85722 L 579.72275,740.25073"
       style="opacity:1;fill:none;fill-rule:evenodd;stroke:white;stroke-width:3;stroke-linecap:butt;stroke-linejoin:round;stroke-miterlimit:4;stroke-dasharray:none;stroke-opacity:1;display:inline"
       id="path2069" />
    <path
       d="M 631.32051,818.88709 L 627.25275,816.01158 C 626.16196,814.11925 626.64939,813.03642 627.36414,811.68809 L 629.6043,808.35881 L 629.70745,801.17629 L 589.59097,752.0497 L 589.8055,740.67979 L 522.65868,737.89094 L 510.85971,740.25073 L 507.21276,740.03621 L 493.91211,743.89768 L 474.60472,748.40274 L 469.02703,754.83854 L 450.57774,766.20845 L 444.78552,768.56824 C 425.18845,780.2363 419.91411,782.22034 422.90381,803.96513 C 419.64038,810.80786 414.20638,815.91413 408.10148,820.48368"
       style="opacity:1;fill:none;fill-rule:evenodd;stroke:white;stroke-width:3;stroke-linecap:butt;stroke-linejoin:round;stroke-miterlimit:4;stroke-dasharray:none;stroke-opacity:1;display:inline"
       id="path2071" />
    <path
       d="M 494.77022,743.89768 C 468.38345,733.0343 441.99668,723.75315 415.60991,710.86059 C 406.42507,707.87533 400.91142,702.79226 395.65893,697.55994 C 376.18481,698.62249 378.13408,674.0666 369.70122,661.51947 L 369.48669,639.63776 C 365.67933,633.99443 363.4234,629.33833 360.46909,626.33885 C 354.17492,619.95826 356.19091,616.42252 353.18267,609.81856"
       style="opacity:1;fill:none;fill-rule:evenodd;stroke:white;stroke-width:3;stroke-linecap:butt;stroke-linejoin:round;stroke-miterlimit:4;stroke-dasharray:none;stroke-opacity:1;display:inline"
       id="path2073" />
    <path
       d="M 45.370434,665.72183 L 54.107818,665.72183 L 55.676067,662.3613 L 63.741345,662.80937 L 74.046977,675.13132 L 80.095936,676.02747 L 117.06179,691.03784 L 131.84813,697.75891 L 182.70419,714.1135 L 188.97718,721.50667 L 210.48459,730.46809"
       style="fill:none;fill-rule:evenodd;stroke:white;stroke-width:3;stroke-linecap:butt;stroke-linejoin:round;stroke-miterlimit:4;stroke-dasharray:none;stroke-opacity:1"
       id="path1899" />
    <path
       d="M 325.4148,861.97693 L 300.09879,870.49027 C 298.00779,870.13296 295.91679,871.3195 293.82579,872.73063 L 277.02313,878.77959 C 273.13985,880.5014 269.25657,882.53372 265.37329,883.70837 C 259.92176,885.98462 254.47023,889.98898 249.0187,893.3419 L 247.22641,891.54961 L 238.04096,895.13418 L 233.11218,897.15049 L 225.719,898.71875 C 224.96924,901.70291 223.40309,903.87068 221.46233,905.66385 C 220.42284,909.17825 217.23509,911.08145 213.84512,912.83298 L 197.49053,912.83298 C 194.51815,910.98882 190.78336,911.30816 184.72051,916.64159 C 181.50933,918.86628 178.29816,919.82832 175.08698,920.89826 C 167.08671,922.18096 159.94235,925.60342 153.1315,929.85968 C 133.88696,928.65963 141.96263,921.15491 144.84219,914.8493 L 135.4327,914.8493 L 130.50392,911.48877 L 122.43864,911.48877"
       style="fill:none;fill-rule:evenodd;stroke:white;stroke-width:3;stroke-linecap:butt;stroke-linejoin:round;stroke-miterlimit:4;stroke-dasharray:none;stroke-opacity:1"
       id="path1901" />
    <path
       d="M 174.71813,921.1223 C 173.50177,925.38873 173.2627,931.66185 175.1662,934.11636 C 177.03957,936.53201 180.54982,941.52972 184.23814,948.25584 C 187.94462,955.01509 190.84622,957.67779 193.51826,960.66487 C 196.1903,963.65195 200.46407,965.29437 204.69911,966.86952 C 229.9158,975.51186 254.92496,985.39933 279.93559,995.27804 C 286.23597,997.69616 290.12141,1003.8372 290.6893,1012.9768 L 291.29753,1075.2907 C 292.3367,1080.0349 291.89207,1086.2866 291.23894,1092.8475 C 291.05133,1094.7322 291.73663,1106.2521 291.69194,1113.7136 C 291.07147,1118.0837 293.44413,1119.8394 292.877,1124.3679 L 297.18477,1188.5076 C 289.2373,1188.3252 285.64039,1186.9527 285.47237,1188.2364 L 283.29613,1194.6376"
       style="fill:none;fill-rule:evenodd;stroke:white;stroke-width:3;stroke-linecap:butt;stroke-linejoin:round;stroke-miterlimit:4;stroke-dasharray:none;stroke-opacity:1"
       id="path1903" />
    <path
       d="M 537.90177,909.33266 L 546.36699,900.64468 C 546.61187,898.54006 547.75733,897.51613 549.48575,897.19176 L 600.3884,843.95004 L 612.64068,843.83865 C 618.46329,843.3266 620.05139,839.32732 620.88312,834.70514 C 627.97299,823.34072 635.74202,813.33463 643.71692,803.74028 C 644.87868,803.14276 645.952,801.66079 647.3926,803.85167 L 652.73905,818.66579 L 655.9692,818.5544 C 669.18996,812.69052 684.77954,808.60326 699.18633,803.6289 C 699.81261,806.40106 701.76568,807.51474 703.53032,808.86396 L 706.42632,808.41843 L 726.92104,802.1809 C 728.73604,800.26577 730.17996,798.48979 734.27241,795.72061 L 751.98252,791.488 C 752.19124,787.40391 750.34777,783.31981 748.52961,779.23572 L 757.44036,776.33973 L 758.10866,770.65912 C 759.4683,769.40942 760.80546,768.00243 762.45265,768.76559 C 764.4706,772.35517 764.09025,774.0261 764.79173,776.5625 C 765.89269,778.00291 766.98854,779.36672 767.7991,776.45112 L 766.46249,754.06286"
       style="fill:none;fill-rule:evenodd;stroke:white;stroke-width:3;stroke-linecap:butt;stroke-linejoin:round;stroke-miterlimit:4;stroke-dasharray:none;stroke-opacity:1"
       id="path1905" />
    <path
       d="M 883.77715,982.24473 L 880.29612,981.17364 L 879.76058,977.96038 L 827.54514,977.42485 C 826.49609,968.43228 825.93154,960.08152 827.0096,950.37992 L 832.09726,946.89889 C 829.02495,942.08379 825.43237,933.62684 822.99303,933.24255 C 824.07806,929.13672 824.67176,925.03089 824.33189,920.92506 L 820.04754,912.62415 L 816.56651,912.35638 L 803.71348,889.06026 L 805.85566,888.25694 C 804.77248,880.86674 805.63007,870.56539 805.85566,861.21203 C 810.26125,859.36962 813.57941,856.43978 816.56651,853.17888 L 807.19451,841.66471 C 797.60777,835.92314 789.12189,835.13542 780.95291,835.77374 C 773.02662,830.31146 765.43176,824.51774 756.85347,819.70745 C 752.56913,818.14762 748.28479,812.0169 744.00044,807.9255 L 734.0929,795.87579"
       style="fill:none;fill-rule:evenodd;stroke:white;stroke-width:3;stroke-linecap:butt;stroke-linejoin:round;stroke-miterlimit:4;stroke-dasharray:none;stroke-opacity:1"
       id="path1907" />
    <path
       d="M 344.04311,735.80616 L 337.9827,739.0528 C 336.49934,739.15669 335.29843,739.54303 334.73605,740.5679 C 332.9552,741.56318 330.89978,742.47608 328.4592,743.27344 L 321.64124,743.59811 L 319.36859,741.86656 C 318.00021,741.84019 316.55032,741.48778 315.36439,742.19123 L 290.70827,741.13377 L 290.05611,740.45048 L 277.16218,741.32545 L 260.36945,750.47478 L 259.95496,751.48272 L 253.67811,754.85315 C 252.90012,756.53424 251.81238,756.35679 250.75612,756.36825 C 246.95676,757.4466 245.10681,759.17475 242.96418,760.80533 C 240.4914,761.49654 239.75247,760.88735 238.31065,760.80534 C 237.59795,759.75041 236.46996,759.11078 235.49688,758.31624 C 232.93564,758.60054 230.37439,756.40502 227.81315,755.39426 C 224.52685,755.3546 221.86514,755.93955 220.0212,757.34225 C 217.42388,759.03821 216.36064,757.03243 214.28546,757.01758 C 209.51197,756.98155 206.43439,756.48877 203.35508,754.20382 C 201.45678,752.56869 200.52833,753.51985 199.45911,754.0956"
       style="fill:none;fill-rule:evenodd;stroke:white;stroke-width:3;stroke-linecap:butt;stroke-linejoin:round;stroke-miterlimit:4;stroke-dasharray:none;stroke-opacity:1"
       id="path4713" />
    <path
       d="M 556.4554,1316.1017 C 555.61154,1315.8684 555.04054,1316.2353 553.73894,1314.995 C 551.85184,1312.9547 550.68771,1310.1914 549.37728,1307.5744 C 547.42446,1306.7473 549.64357,1305.4081 547.90547,1304.4842 C 546.16737,1303.5604 547.25904,1302.5866 547.12582,1301.614 C 546.55737,1299.0623 545.55971,1296.8173 544.28164,1294.7725 L 524.46154,1291.9554 C 525.3957,1290.3344 533.10901,1291.2187 538.24506,1291.1506 C 539.66278,1292.0018 541.05331,1292.4179 542.37006,1291.6536 C 541.63269,1287.7368 537.65427,1284.3246 536.13226,1280.4859 C 534.71273,1280.8548 533.10153,1281.1596 531.16955,1280.4859 C 529.23756,1279.8123 527.66924,1280.3732 525.91908,1280.4859 C 526.98962,1279.6806 528.05169,1278.8737 528.03188,1277.8701 C 527.62343,1276.03 525.6394,1274.3818 524.36093,1272.6384 L 531.30561,1278.4138 C 533.18365,1277.6828 534.75726,1277.5094 536.63531,1277.6689 C 536.94518,1277.7928 534.94986,1271.691 534.12007,1271.8335 C 532.07646,1272.1845 528.90773,1270.1697 529.59263,1269.4924 C 531.01401,1269.5916 532.61965,1270.2496 533.59512,1269.495 C 532.84354,1266.2346 529.79238,1262.7709 528.78776,1259.4585 C 527.59648,1259.5734 525.84766,1260.9427 525.76947,1258.553 C 526.55584,1257.9084 527.03919,1257.2132 526.61501,1256.3667 C 525.38575,1255.8639 524.86804,1254.6495 524.09977,1253.6857 C 522.14534,1254.9287 520.47868,1252.6104 516.79071,1252.076 C 518.6708,1251.8538 520.22984,1251.2444 521.30981,1250.7326 C 520.41665,1250.2226 519.1777,1249.964 519.33045,1248.6933 C 519.94168,1247.5269 520.54181,1246.689 521.9463,1245.7756 C 519.52019,1242.8572 517.86129,1241.3469 516.31216,1238.7329 C 515.40434,1239.4474 514.50438,1240.2405 513.69631,1241.9525 L 512.45095,1239.0864 C 513.1929,1238.9018 514.04812,1238.8658 514.6018,1237.9281 C 515.00643,1235.481 514.57346,1234.625 513.49113,1234.3458 C 511.71059,1233.8863 511.50962,1230.9311 513.48415,1229.493 C 512.51579,1228.3132 512.51307,1226.7148 512.51361,1225.5349 C 511.70958,1224.7794 511.50386,1223.7846 511.18107,1222.8366 C 509.69773,1222.55 508.75506,1222.9392 508.48911,1224.1743 C 506.07448,1221.9757 503.69791,1223.2951 501.24522,1224.1743 C 502.17646,1223.017 503.13271,1221.939 509.17149,1221.2837 C 509.89674,1220.9989 509.067,1217.7237 507.45852,1213.2787 C 505.9484,1212.6312 505.38251,1215.0862 504.52729,1216.5905 C 504.95544,1215.3316 505.58759,1213.5443 504.44023,1212.8763 C 503.45169,1213.2518 502.11445,1214.0812 501.33604,1213.07 C 500.53911,1212.0346 499.60944,1212.594 498.70809,1212.8054 C 497.80953,1210.2678 496.02719,1207.8774 494.58049,1205.4312 C 493.76096,1206.2857 492.17275,1205.9871 490.78443,1205.9884 L 490.56705,1198.5543 C 487.19702,1192.0288 484.03446,1185.647 480.48159,1179.3462 L 485.64239,1176.257 L 480.59575,1168.2056 L 479.53804,1169.0105 C 478.9697,1167.1805 478.29569,1166.6184 477.62907,1165.9677 L 478.423,1165.1519 C 477.48204,1164.5846 476.62535,1163.0041 476.07696,1161.7499 C 475.38402,1160.1471 474.19181,1160.0836 473.76128,1158.8173 C 472.84397,1156.7656 472.25491,1156.1741 470.83662,1154.6233 L 469.42808,1155.5288 C 469.71197,1153.9999 469.75682,1152.4113 469.23207,1150.6802 C 467.98009,1149.7572 467.12611,1150.8273 466.64385,1150.3868 C 465.16738,1149.4751 465.48701,1148.7979 464.95486,1147.6974 L 464.49821,1142.6508 C 463.21478,1138.5534 461.93228,1137.6136 461.02587,1133.672 C 459.70901,1130.089 458.93832,1129.082 457.8361,1126.666 C 455.60336,1121.772 453.63992,1117.6749 452.49595,1118.7218 C 452.3165,1115.6406 450.94933,1114.3106 449.7086,1112.6065 C 447.48276,1109.2021 445.93837,1107.6715 444.07423,1105.2617 L 438.44032,1097.9175 C 437.65226,1097.9845 437.45936,1097.9042 437.51033,1100.6801 C 436.79425,1100.7522 436.19055,1099.4695 435.44887,1098.0262 C 435.59323,1097.033 436.33951,1096.5631 437.233,1096.1691 C 434.72026,1093.788 433.8567,1091.4069 432.60496,1089.0258 C 433.17567,1087.4735 442.93341,1085.4838 448.50128,1083.6935 C 452.89457,1083.1053 457.28785,1083.0659 461.68114,1080.9771 C 465.80685,1080.2245 473.36074,1081.6534 480.29392,1082.6874 C 481.65651,1082.48 482.04862,1081.7873 481.80306,1080.7758 L 469.83052,1061.5594 C 471.61286,1060.1878 473.75021,1059.0648 478.18112,1059.5472 C 484.73955,1055.0558 489.81184,1048.781 495.08323,1042.7451 L 512.18717,1025.7424 C 518.94731,1031.5464 530.02595,1037.6135 531.40361,1041.1357 L 541.86701,1039.7271 C 542.4816,1034.1076 541.72275,1021.6263 547.29993,1020.1082 L 550.41882,1019.7058 C 556.03338,1014.3097 553.04932,1009.2792 553.63833,1003.9101 C 554.17098,998.80943 557.62118,996.62632 562.15837,995.53019 C 562.9437,992.02542 564.42379,989.91016 566.81819,989.62352"
       style="fill:none;fill-rule:evenodd;stroke:white;stroke-width:3;stroke-linecap:butt;stroke-linejoin:round;stroke-miterlimit:4;stroke-dasharray:none;stroke-opacity:1"
       id="path4780" />
    <path
       d="M 448.51317,1083.5903 L 433.8344,1069.507 C 431.50872,1068.4442 430.25663,1066.4819 429.09727,1064.586 C 427.25071,1063.8461 425.41711,1063.0608 423.40525,1062.8994 C 423.68212,1068.8607 420.74188,1073.8539 416.48244,1078.8279 L 411.10463,1085.0291 C 405.68896,1088.5149 399.42986,1091.6316 392.84033,1093.8475 C 391.41778,1093.7143 387.80391,1090.649 386.4083,1090.4458 C 385.98108,1090.3836 382.51911,1090.3379 382.51911,1090.3379 L 382.4871,1092.0694 L 380.26806,1092.0209 C 378.94998,1092.8043 379.19117,1093.9775 379.17685,1095.0869 C 376.73039,1094.6178 374.28393,1094.5061 371.83747,1094.5472 C 370.73716,1094.127 369.94601,1093.8613 368.05257,1093.0444 C 368.06426,1093.8723 368.66758,1094.5131 368.73946,1095.7665 C 367.36413,1098.6334 365.91153,1101.1466 365.46123,1103.5459 L 361.57204,1101.2674 L 359.19753,1101.2628 L 359.20941,1098.3925 L 350.81909,1098.8087 C 349.88518,1097.3288 350.13759,1095.2557 349.81932,1093.4679 C 347.50859,1092.7516 345.06823,1091.5168 342.58787,1090.122 L 341.74091,1091.9321 C 341.31869,1092.5528 340.72178,1092.9264 339.08782,1092.1176 C 337.77431,1091.8823 325.42233,1086.8422 316.30822,1083.7504 L 314.6252,1084.5333 C 308.1932,1080.8978 301.8845,1079.1116 295.52947,1076.6305 C 294.69348,1077.3881 294.47947,1078.8713 294.12635,1080.1923 C 293.25609,1079.4877 292.34677,1078.6416 291.78749,1078.6254"
       style="fill:none;fill-rule:evenodd;stroke:white;stroke-width:3;stroke-linecap:butt;stroke-linejoin:round;stroke-miterlimit:4;stroke-dasharray:none;stroke-opacity:1"
       id="path5667" />
    <path
       d="M 515.40109,557.76437 L 474.40826,557.93469 L 467.06514,559.47002 C 466.01168,553.80957 463.23518,556.30283 463.59428,560.38002 C 455.78537,563.62167 446.87962,568.27251 442.42251,569.20725 C 437.95358,570.14446 399.3667,585.89096 399.3667,585.89096 C 396.40042,582.51858 393.58815,585.00294 393.33498,588.33747 C 389.37053,590.50791 385.64168,592.14828 382.28635,592.94821 C 377.05409,593.71141 374.024,592.37083 375.28627,597.27308 C 372.04423,599.83804 368.24017,601.50378 364.24002,602.85577 C 362.56259,600.99874 360.65631,599.31575 358.83006,599.83991 C 356.96072,594.94517 352.11033,592.98228 352.56845,601.71708 C 352.1649,604.27913 350.7291,606.84118 352.56845,609.40323 C 349.88745,610.2369 348.96374,612.85667 344.59237,614.04292 C 341.53726,614.87199 339.66574,617.57803 336.6082,618.63936 C 334.57287,618.45619 331.67643,618.55377 330.3666,619.48821 C 329.12174,620.37631 327.84421,620.25916 327.341,619.19167 C 321.14482,606.0473 318.42641,617.3883 318.40776,620.22078 C 318.48723,623.01828 319.33305,625.66672 315.56342,628.02009 C 313.36835,629.95776 316.02138,630.14886 316.01484,631.60887 C 310.57675,635.95986 307.0899,637.70525 301.3965,642.30494 C 296.20751,646.49711 293.8071,636.66957 289.30447,640.66718 C 287.71531,641.89867 287.31155,642.6773 288.49324,645.08242 C 289.01023,649.52154 286.97691,650.97252 284.97245,652.61984 L 245.87346,685.41077 C 238.92455,685.08857 237.55829,689.01797 236.93546,693.66627 C 234.16261,697.70568 231.67877,701.7038 227.89979,705.88694 C 224.81435,708.58241 222.47437,711.6385 221.51509,715.54891 C 219.57128,718.52882 217.32453,721.59832 215.04872,724.27698 C 213.40758,726.20862 211.08378,728.11994 210.06191,730.10434 C 209.15741,735.41411 207.01886,740.46442 203.11542,744.62264 C 198.38389,749.66301 198.34541,752.86674 199.69936,756.00954 C 198.62326,759.80498 195.17246,764.00915 192.86603,767.4536 L 184.09835,775.53758 C 179.76541,774.84253 177.19836,779.5088 174.70416,781.00473 C 174.70416,781.00473 149.37249,801.16855 148.33921,806.1238 C 144.26187,825.67729 141.72211,836.29867 138.49478,851.94415 C 136.96497,859.33328 139.63347,865.8931 139.63347,865.8931 C 139.63347,865.8931 143.77403,875.23727 144.81475,881.32378 C 146.06688,888.64664 145.83343,891.00442 141.62379,895.15599 C 138.68203,898.05718 133.67109,901.20341 129.66912,900.92968 C 123.16062,900.48449 124.38533,904.08837 123.80452,906.38847 L 121.9814,913.71807 L 52.808383,927.66702 C 49.241823,928.9896 45.472913,929.23297 42.325523,932.79112 L 38.979733,932.79112 C 34.659593,928.84055 31.739793,931.17737 28.725573,932.73632 L 19.557688,932.73275"
       style="fill:none;fill-rule:evenodd;stroke:white;stroke-width:3;stroke-linecap:butt;stroke-linejoin:round;stroke-miterlimit:4;stroke-dasharray:none;stroke-opacity:1"
       id="path7439" />
    <path
       d="M 42.879933,932.5528 L 88.607793,962.16839 C 87.053583,970.85644 96.639233,975.09205 103.36202,976.35309 C 109.25162,979.74185 113.46022,983.53986 119.30888,991.35073 C 125.14805,998.40472 129.04911,993.31533 132.68063,991.78399 L 123.3783,1020.2605"
       style="fill:none;fill-rule:evenodd;stroke:white;stroke-width:3;stroke-linecap:butt;stroke-linejoin:round;stroke-miterlimit:4;stroke-dasharray:none;stroke-opacity:1"
       id="path9211" />
  </g>
  <g
     transform="translate(30.7708,-317.1503)"
     style="opacity:1;display:inline"
     id="layer5">
    <path
       d="M 125.47052,361.85356 L 108.17427,372.92813 L 114.02264,386.49138 C 122.38347,392.98369 129.48314,401.61998 133.43426,415.60881 C 136.64822,426.79659 140.41029,438.80654 144.50884,451.32121 C 144.39498,466.91687 142.20033,482.51253 146.12648,498.10819 C 155.15958,512.68315 173.41756,536.51076 198.72732,554.19062 L 209.33867,572.02167 C 210.2979,576.21999 210.50361,580.60668 218.29788,583.09624 C 231.31904,598.04862 247.81978,606.29037 265.45816,612.33811 C 274.65376,615.96829 288.45705,623.60515 305.27687,633.86509 L 326.92829,682.64301 L 330.41243,705.41433 L 340.61597,738.3892 L 367.74246,784.30514 L 395.98886,812.05381 L 424.85742,861.08059 L 440.4116,882.48314 C 454.1724,895.86381 471.00963,900.4885 489.06509,901.6459 C 502.61366,900.30753 516.19602,899.05195 536.22537,913.59151 C 550.07338,924.52665 558.99614,944.18652 561.23649,975.6838 C 562.84999,988.92829 565.53823,1002.0901 571.44003,1015.0047 C 577.06552,1025.7495 584.77505,1033.9934 593.71362,1040.7625 C 606.84311,1051.3533 623.09406,1056.5524 632.91016,1072.8663 C 637.69491,1084.8982 641.53126,1091.4768 647.91477,1112.7017 C 649.38258,1121.795 656.33732,1140.9097 673.8646,1146.526 C 679.605,1148.3654 680.84658,1155.1237 683.18128,1156.8589 C 684.70455,1170.477 682.27978,1184.3705 697.24226,1197.0509 L 729.34609,1191.0781 L 725.11535,1186.474 L 720.51132,1168.1823 C 711.51063,1157.7848 702.50995,1150.1936 693.50926,1143.4201 C 680.45902,1123.6797 666.74312,1116.8906 656.46769,1108.5355 C 658.53792,1095.3476 653.91175,1084.6823 640.2497,1066.6873 C 632.04118,1055.8754 617.71522,1048.4646 605.28594,1040.638 C 592.85266,1030.0415 583.39973,1017.7064 574.92417,1004.8012 C 572.38561,998.76019 571.05694,990.60184 569.8224,982.27878 C 571.8904,970.34169 574.32112,958.28852 568.32919,948.93061 C 561.78169,925.5824 553.02119,916.85553 544.1891,909.48521 C 523.53724,892.38784 501.25614,891.90858 478.98597,891.31792 C 465.76293,888.87524 453.56348,885.28142 446.25998,876.26147 C 437.21942,863.52778 432.2219,850.12977 426.18556,837.39608 C 409.32951,810.05282 388.76927,790.11795 369.94164,766.71787 C 357.47595,751.30105 354.35714,738.08349 348.95302,724.32822 C 343.06059,710.51925 340.38313,700.14594 340.37014,691.98946 C 340.363,687.50646 335.20178,688.19412 334.72137,687.6229 C 337.41664,665.80588 327.13879,648.84107 317.59578,635.10943 C 302.09297,617.65855 282.16385,607.80293 261.72516,599.89476 C 239.5267,589.9338 221.14849,575.58646 209.33867,555.63707 C 204.76894,548.04804 198.29364,540.93541 190.18131,534.23203 L 176.11494,518.51528 C 167.89536,504.80973 153.18189,490.56303 152.09929,477.45224 C 156.18418,456.56946 158.86095,437.15957 150.48165,420.21285 C 138.13986,399.9588 131.23686,380.79252 125.47052,361.85356 z "
       style="fill:#2c5aa0;fill-rule:evenodd;stroke:none;stroke-width:0.5;stroke-linecap:round;stroke-linejoin:round;stroke-miterlimit:4;stroke-dasharray:none;stroke-opacity:1"
       id="path3121" />
  </g>
  <g
     transform="translate(-52.37206,-18.03387)"
     id="layer11">
    <text
       x="407.05054"
       y="188.5731"
       style="font-size:32px;font-style:normal;font-variant:normal;font-weight:bold;font-stretch:normal;text-align:center;line-height:100%;writing-mode:lr-tb;text-anchor:middle;fill:black;fill-opacity:1;stroke:none;stroke-width:1px;stroke-linecap:butt;stroke-linejoin:miter;stroke-opacity:1;font-family:Arial"
       id="text30190"
       xml:space="preserve"><tspan
         x="407.05054"
         y="188.5731"
         id="tspan30194">Białołęka</tspan></text>
    <text
       x="223.91914"
       y="320.92502"
       style="font-size:32px;font-style:normal;font-variant:normal;font-weight:bold;font-stretch:normal;text-align:center;line-height:100%;writing-mode:lr-tb;text-anchor:middle;fill:black;fill-opacity:1;stroke:none;stroke-width:1px;stroke-linecap:butt;stroke-linejoin:miter;stroke-opacity:1;font-family:Arial"
       id="text30196"
       xml:space="preserve"><tspan
         x="223.91914"
         y="320.92502"
         id="tspan30198">Bielany</tspan></text>
    <text
       x="189.71121"
       y="465.43716"
       style="font-size:32px;font-style:normal;font-variant:normal;font-weight:bold;font-stretch:normal;text-align:center;line-height:100%;writing-mode:lr-tb;text-anchor:middle;fill:black;fill-opacity:1;stroke:none;stroke-width:1px;stroke-linecap:butt;stroke-linejoin:miter;stroke-opacity:1;font-family:Arial"
       id="text30200"
       xml:space="preserve"><tspan
         x="189.71121"
         y="465.43716"
         id="tspan30202">Bemowo</tspan></text>
    <text
       x="123.50076"
       y="692.00769"
       style="font-size:32px;font-style:normal;font-variant:normal;font-weight:bold;font-stretch:normal;text-align:center;line-height:100%;writing-mode:lr-tb;text-anchor:middle;fill:black;fill-opacity:1;stroke:none;stroke-width:1px;stroke-linecap:butt;stroke-linejoin:miter;stroke-opacity:1;font-family:Arial"
       id="text30204"
       xml:space="preserve"><tspan
         x="123.50076"
         y="692.00769"
         id="tspan30206">Ursus</tspan></text>
    <text
       x="284.99829"
       y="760.12042"
       style="font-size:32px;font-style:normal;font-variant:normal;font-weight:bold;font-stretch:normal;text-align:center;line-height:100%;writing-mode:lr-tb;text-anchor:middle;fill:black;fill-opacity:1;stroke:none;stroke-width:1px;stroke-linecap:butt;stroke-linejoin:miter;stroke-opacity:1;font-family:Arial"
       id="text30208"
       xml:space="preserve"><tspan
         x="284.99829"
         y="760.12042"
         id="tspan30210">Włochy</tspan></text>
    <text
       x="474.71588"
       y="916.01855"
       style="font-size:32px;font-style:normal;font-variant:normal;font-weight:bold;font-stretch:normal;text-align:center;line-height:100%;writing-mode:lr-tb;text-anchor:middle;fill:black;fill-opacity:1;stroke:none;stroke-width:1px;stroke-linecap:butt;stroke-linejoin:miter;stroke-opacity:1;font-family:Arial"
       id="text30212"
       xml:space="preserve"><tspan
         x="474.71588"
         y="916.01855"
         id="tspan30214">Ursynów</tspan></text>
    <text
       x="505.81287"
       y="708.99341"
       style="font-size:32px;font-style:normal;font-variant:normal;font-weight:bold;font-stretch:normal;text-align:center;line-height:100%;writing-mode:lr-tb;text-anchor:middle;fill:black;fill-opacity:1;stroke:none;stroke-width:1px;stroke-linecap:butt;stroke-linejoin:miter;stroke-opacity:1;font-family:Arial"
       id="text30216"
       xml:space="preserve"><tspan
         x="505.81287"
         y="708.99341"
         id="tspan30218">Mokotów</tspan></text>
    <text
       x="329.23441"
       y="638.06616"
       style="font-size:28px;font-style:normal;font-variant:normal;font-weight:bold;font-stretch:normal;text-align:center;line-height:100%;writing-mode:lr-tb;text-anchor:middle;fill:black;fill-opacity:1;stroke:none;stroke-width:1px;stroke-linecap:butt;stroke-linejoin:miter;stroke-opacity:1;font-family:Arial"
       id="text30220"
       xml:space="preserve"><tspan
         x="329.23441"
         y="638.06616"
         id="tspan30222">Ochota</tspan></text>
    <text
       x="307.54752"
       y="544.80511"
       style="font-size:32px;font-style:normal;font-variant:normal;font-weight:bold;font-stretch:normal;text-align:center;line-height:100%;writing-mode:lr-tb;text-anchor:middle;fill:black;fill-opacity:1;stroke:none;stroke-width:1px;stroke-linecap:butt;stroke-linejoin:miter;stroke-opacity:1;font-family:Arial"
       id="text30224"
       xml:space="preserve"><tspan
         x="307.54752"
         y="544.80511"
         id="tspan30226">Wola</tspan></text>
    <text
       x="360.85422"
       y="435.46362"
       style="font-size:28px;font-style:normal;font-variant:normal;font-weight:bold;font-stretch:normal;text-align:center;line-height:100%;writing-mode:lr-tb;text-anchor:middle;fill:black;fill-opacity:1;stroke:none;stroke-width:1px;stroke-linecap:butt;stroke-linejoin:miter;stroke-opacity:1;font-family:Arial"
       id="text30228"
       xml:space="preserve"><tspan
         x="360.85422"
         y="435.46362"
         id="tspan30230">Żoliborz</tspan></text>
    <text
       x="456.80307"
       y="538.05688"
       style="font-size:28px;font-style:normal;font-variant:normal;font-weight:bold;font-stretch:normal;text-align:center;line-height:100%;writing-mode:lr-tb;text-anchor:middle;fill:black;fill-opacity:1;stroke:none;stroke-width:1px;stroke-linecap:butt;stroke-linejoin:miter;stroke-opacity:1;font-family:Arial"
       id="text30232"
       xml:space="preserve"><tspan
         x="456.80307"
         y="538.05688"
         id="tspan30234">Śród-</tspan><tspan
         x="456.80307"
         y="566.05688"
         id="tspan30274">mieście</tspan></text>
    <text
       x="489.45255"
       y="439.67783"
       style="font-size:28px;font-style:normal;font-variant:normal;font-weight:bold;font-stretch:normal;text-align:center;line-height:100%;writing-mode:lr-tb;text-anchor:middle;fill:black;fill-opacity:1;stroke:none;stroke-width:1px;stroke-linecap:butt;stroke-linejoin:miter;stroke-opacity:1;font-family:Arial"
       id="text30236"
       xml:space="preserve"><tspan
         x="489.45255"
         y="439.67783"
         id="tspan30238">Praga</tspan><tspan
         x="489.45255"
         y="467.67783"
         id="tspan30272">Północ</tspan></text>
    <text
       x="546.03656"
       y="357.04279"
       style="font-size:32px;font-style:normal;font-variant:normal;font-weight:bold;font-stretch:normal;text-align:center;line-height:100%;writing-mode:lr-tb;text-anchor:middle;fill:black;fill-opacity:1;stroke:none;stroke-width:1px;stroke-linecap:butt;stroke-linejoin:miter;stroke-opacity:1;font-family:Arial"
       id="text30240"
       xml:space="preserve"><tspan
         x="546.03656"
         y="357.04279"
         id="tspan30264">Targówek</tspan></text>
    <text
       x="602.35425"
       y="518.58246"
       style="font-size:28px;font-style:normal;font-variant:normal;font-weight:bold;font-stretch:normal;text-align:center;line-height:100%;writing-mode:lr-tb;text-anchor:middle;fill:black;fill-opacity:1;stroke:none;stroke-width:1px;stroke-linecap:butt;stroke-linejoin:miter;stroke-opacity:1;font-family:Arial"
       id="text30244"
       xml:space="preserve"><tspan
         x="602.35425"
         y="518.58246"
         id="tspan30246">Praga</tspan><tspan
         x="602.35425"
         y="546.58246"
         id="tspan30276">Południe</tspan></text>
    <text
       x="752.86139"
       y="429.26016"
       style="font-size:28px;font-style:normal;font-variant:normal;font-weight:bold;font-stretch:normal;text-align:center;line-height:100%;writing-mode:lr-tb;text-anchor:middle;fill:black;fill-opacity:1;stroke:none;stroke-width:1px;stroke-linecap:butt;stroke-linejoin:miter;stroke-opacity:1;font-family:Arial"
       id="text30248"
       xml:space="preserve"><tspan
         x="752.86139"
         y="429.26016"
         id="tspan30250">Rembertów</tspan></text>
    <text
       x="811.9848"
       y="696.30811"
       style="font-size:32px;font-style:normal;font-variant:normal;font-weight:bold;font-stretch:normal;text-align:center;line-height:100%;writing-mode:lr-tb;text-anchor:middle;fill:black;fill-opacity:1;stroke:none;stroke-width:1px;stroke-linecap:butt;stroke-linejoin:miter;stroke-opacity:1;font-family:Arial"
       id="text30252"
       xml:space="preserve"><tspan
         x="811.9848"
         y="696.30811"
         id="tspan30254">Wawer</tspan></text>
    <text
       x="901.4776"
       y="518.48798"
       style="font-size:32px;font-style:normal;font-variant:normal;font-weight:bold;font-stretch:normal;text-align:center;line-height:100%;writing-mode:lr-tb;text-anchor:middle;fill:black;fill-opacity:1;stroke:none;stroke-width:1px;stroke-linecap:butt;stroke-linejoin:miter;stroke-opacity:1;font-family:Arial"
       id="text30256"
       xml:space="preserve"><tspan
         x="901.4776"
         y="518.48798"
         id="tspan30258">Wesoła</tspan></text>
    <text
       x="652.06073"
       y="862.15051"
       style="font-size:32px;font-style:normal;font-variant:normal;font-weight:bold;font-stretch:normal;text-align:center;line-height:100%;writing-mode:lr-tb;text-anchor:middle;fill:black;fill-opacity:1;stroke:none;stroke-width:1px;stroke-linecap:butt;stroke-linejoin:miter;stroke-opacity:1;font-family:Arial"
       id="text30260"
       xml:space="preserve"><tspan
         x="652.06073"
         y="862.15051"
         id="tspan30262">Wilanów</tspan></text>
  </g>
</svg>
